<svg xmlns="http://www.w3.org/2000/svg" width="725.839" height="110.065" viewBox="0 0 680.474 103.186"><g transform="translate(-905.095 -1294.362) scale(5.68796)"><path d="M170.144 227.775c-2.12 0-3.796.687-5.036 2.05-1.226 1.364-1.68 3.42-1.68 5.858 1.136-.18 1.52-.25 2.794-.434 0-3.33 1.305-5.101 3.922-5.101 2.631 0 3.955 1.794 3.955 5.375s-1.324 5.375-3.955 5.375c-.851 0-.968-.025-1.331-.142l-1.11 2.154c.927.323 1.178.36 2.441.36 2.121 0 3.813-.686 5.052-2.05 1.24-1.363 1.857-3.26 1.857-5.697 0-2.438-.617-4.334-1.857-5.698-1.24-1.363-2.93-2.05-5.052-2.05zM181.376 232.323l2.376 9.152h.041l2.356-9.152h2.871l-3.47 10.743h-3.657l-3.471-10.743h2.954M192.814 236.682h4.42c-.04-1.763-.73-2.644-2.065-2.644-.73 0-1.288.206-1.674.62-.371.413-.599 1.088-.681 2.024m0 1.798c.069.991.365 1.714.888 2.169.523.44 1.295.661 2.314.661.826 0 1.853-.206 3.078-.62v2.108c-1.253.316-2.39.475-3.409.475-1.804 0-3.195-.468-4.173-1.405-.964-.95-1.446-2.342-1.446-4.173 0-1.819.434-3.203 1.301-4.153.868-.95 2.122-1.426 3.76-1.426 3.14 0 4.711 1.839 4.711 5.517 0 .275-.02.557-.062.847h-6.962M202.168 232.323h2.748v2.066h.041c.455-.634 1.068-1.136 1.84-1.508a5.86 5.86 0 0 1 2.54-.558h.414v2.128h-.414c-1.418 0-2.493.324-3.223.97-.73.648-1.095 1.578-1.095 2.79v4.855h-2.85v-10.743M215.107 227.984v5.578h.042c.978-.964 2.045-1.446 3.202-1.446 1.254 0 2.163.358 2.727 1.075.565.716.847 1.942.847 3.677v6.198h-2.685v-5.785c0-1.198-.131-1.99-.393-2.376-.248-.385-.723-.578-1.426-.578-.55 0-1.074.248-1.57.744s-.744 1.026-.744 1.59v6.405h-2.747v-15.082h2.747M226.79 236.682h4.422c-.042-1.763-.73-2.644-2.066-2.644-.73 0-1.288.206-1.674.62-.372.413-.599 1.088-.682 2.024m0 1.798c.07.991.365 1.714.889 2.169.523.44 1.294.661 2.314.661.826 0 1.852-.206 3.078-.62v2.108c-1.253.316-2.39.475-3.409.475-1.804 0-3.195-.468-4.173-1.405-.964-.95-1.447-2.342-1.447-4.173 0-1.819.434-3.203 1.302-4.153.868-.95 2.121-1.426 3.76-1.426 3.14 0 4.71 1.839 4.71 5.517 0 .275-.02.557-.061.847h-6.963M236.765 243.066v-10.743h2.892v10.743h-2.892M250.025 227.984h2.747v15.082h-2.561l-.042-1.343h-.041c-.923 1.033-2.011 1.55-3.264 1.55-1.24 0-2.266-.496-3.079-1.488-.799-1.005-1.198-2.369-1.198-4.09 0-1.777.386-3.148 1.157-4.112.785-.978 1.825-1.467 3.12-1.467 1.17 0 2.21.434 3.12 1.302h.04v-5.434m-4.71 9.71c0 1.171.214 2.053.64 2.645.427.579 1.006.868 1.736.868.634 0 1.184-.214 1.653-.64.482-.428.723-.917.723-1.468v-2.81c0-.55-.241-1.04-.723-1.466a2.374 2.374 0 0 0-1.653-.64c-1.584 0-2.376 1.17-2.376 3.512M262.858 232.323h2.603l.042 1.343h.041c.95-1.033 2.052-1.55 3.306-1.55 1.253 0 2.162.358 2.727 1.075.565.702.847 1.88.847 3.532v6.343h-2.686v-6.136c0-1.033-.13-1.735-.392-2.107-.262-.386-.737-.579-1.426-.579-.565 0-1.095.241-1.59.723-.483.482-.724.999-.724 1.55v6.55h-2.748v-10.744M275.866 243.066v-15.495h2.893v15.495h-2.893" style="line-height:125%;-inkscape-font-specification:'Sans Bold'" font-weight="700" font-size="40" font-family="M+ 1c" letter-spacing="0" word-spacing="0" fill="#134273"/><path d="M165.096 245.703l5.57-10.486-11.541 1.86 5.978 2.18z" fill="#df6f00"/><ellipse cx="257.864" cy="241.633" rx="1.646" ry="1.428" fill="#b1d5ec"/><ellipse cx="238.207" cy="228.801" rx="1.428" ry="1.239" fill="#134273"/></g></svg>

