<?xml version="1.0" encoding="UTF-8"?>
<svg width="24px" height="24px" viewBox="0 0 24 24" version="1.1" xmlns="http://www.w3.org/2000/svg" xmlns:xlink="http://www.w3.org/1999/xlink">
    <!-- Generator: Sketch 61.2 (89653) - https://sketch.com -->
    <title>01. Ontwerpprincipes/03 Icons/24/Nieuws</title>
    <desc>Created with Sketch.</desc>
    <g id="01.-Ontwerpprincipes/03-Icons/24/Nieuws" stroke="none" stroke-width="1" fill="none" fill-rule="evenodd">
        <path d="M21.2570009,4 C21.6673593,4 22,4.32758537 22,4.73170732 L22,4.73170732 L22,13.5731098 C22,16.8698902 20.5658631,19 18.3466732,19 L18.3466732,19 L6.39701809,19 C3.57484731,19 3.24469564,16.7532561 2.89496595,14.3746585 C2.6763013,12.8848293 2.21508459,9.95086585 2.00455578,8.28747561 C1.96253918,7.95542683 2.21512174,7.65853659 2.59813779,7.65853659 L2.59813779,7.65853659 L4.11378174,7.65853659 C4.11378174,7.65853659 4.82598356,13.8091951 4.98520827,15.0951707 C5.0034489,15.2423537 5.11337563,15.205439 5.11337563,15.205439 C5.2231909,14.7199878 5.28251938,14.1670366 5.28251938,13.5731098 L5.28251938,13.5731098 L5.28251938,4.73170732 C5.28251938,4.32758537 5.61516009,4 6.02551852,4 L6.02551852,4 Z M20.1425022,5.82926829 L7.14001723,5.82926829 L7.14001723,13.1463415 C7.14001723,14.9756098 6.8590521,16.2388659 6.3462341,17.1707317 L6.3462341,17.1707317 L18.3466732,17.1707317 C19.5805348,17.1707317 20.1425022,15.3059024 20.1425022,13.5731098 L20.1425022,13.5731098 L20.1425022,5.82926829 Z M18.2850043,10.5853659 L18.2850043,13.5121951 C18.2850043,14.1638171 18.2478543,14.9207317 18.0615473,15.3414634 L18.0615473,15.3414634 L13.6615807,15.3414634 C13.7669751,14.7939634 13.8270095,14.2043902 13.8270095,13.5731098 L13.8270095,13.5731098 L13.8270095,10.5853659 L18.2850043,10.5853659 Z M12.6826794,14.2439024 C12.6505818,14.6384756 12.5924421,15.0084268 12.5070344,15.3414634 L12.5070344,15.3414634 L8.83635856,15.3414634 C8.90311703,14.9935732 8.94955448,14.6270976 8.9744078,14.2439024 L8.9744078,14.2439024 Z M12.7125108,12.4146341 L12.7125108,13.5121951 L8.99751507,13.5121951 L8.99751507,12.4146341 L12.7125108,12.4146341 Z M12.7125108,10.5853659 L12.7125108,11.6829268 L8.99751507,11.6829268 L8.99751507,10.5853659 L12.7125108,10.5853659 Z M18.2850043,7.65853659 L18.2850043,9.48780488 L8.99751507,9.48780488 L8.99751507,7.65853659 L18.2850043,7.65853659 Z" id="Combined-Shape" fill="#154273"></path>
    </g>
</svg>