<?xml version="1.0" encoding="UTF-8"?>
<svg width="24px" height="24px" viewBox="0 0 24 24" version="1.1" xmlns="http://www.w3.org/2000/svg" xmlns:xlink="http://www.w3.org/1999/xlink">
    <title>01. Ontwerpprincipes/03. Icons/02. 24px/04. System/36. Telefoon</title>
    <g id="01.-Ontwerpprincipes/03.-Icons/02.-24px/04.-System/36.-Telefoon" stroke="none" stroke-width="1" fill="none" fill-rule="evenodd">
        <path d="M18.0714286,2.35799523 C14.3571429,1.88066826 10.6428571,1.88066826 6.92857143,2.35799523 C6.37142857,2.35799523 6,2.8353222 6,3.40811456 C6,9.13603819 6,14.8639618 6,20.5918854 C6,21.1646778 6.37142857,21.6420048 6.92857143,21.6420048 C10.6428571,22.1193317 14.3571429,22.1193317 18.0714286,21.6420048 C18.6285714,21.5465394 19,21.0692124 19,20.5918854 C19,14.8639618 19,9.13603819 19,3.40811456 C19,2.8353222 18.6285714,2.35799523 18.0714286,2.35799523 Z M14.3571429,20.5918854 L10.6428571,20.5918854 L10.6428571,19.6372315 L14.3571429,19.6372315 L14.3571429,20.5918854 Z M17.1428571,17.7279236 L7.85714286,17.7279236 L7.85714286,4.3627685 L17.1428571,4.3627685 L17.1428571,17.7279236 Z" id="Shape" fill="#154273"></path>
    </g>
</svg>