<?xml version="1.0" encoding="UTF-8"?>
<svg width="14px" height="10px" viewBox="0 0 14 10" version="1.1" xmlns="http://www.w3.org/2000/svg" xmlns:xlink="http://www.w3.org/1999/xlink">
    <!-- Generator: Sketch 54.1 (76490) - https://sketchapp.com -->
    <title>Shape</title>
    <desc>Created with Sketch.</desc>
    <g id="PROJECT---Verdragenbank" stroke="none" stroke-width="1" fill="#154273" fill-rule="evenodd">
        <g id="D.09-Verdragenbank---Content-detail-(In-page-navigation-01)" transform="translate(-1297.000000, -251.000000)" fill="#000000" fill-rule="nonzero">
            <g id="Acties" transform="translate(982.000000, 236.000000)">
                <g id="03" transform="translate(213.000000, 0.000000)">
                    <g id="3901-downloaden_24px" transform="translate(101.000000, 12.000000)">
                        <g id="2012-email">
                            <g id="Production" transform="translate(1.750000, 3.750000)">
                                <path fill="#154273" d="M12,0 L0.5,0 C0.223875,0 0,0.223875 0,0.5 L0,8 C0,8.276125 0.223875,8.5 0.5,8.5 L12,8.5 C12.276125,8.5 12.5,8.276125 12.5,8 L12.5,0.5 C12.5,0.223875 12.276125,0 12,0 Z M11.010475,1.25 L6.25,4.4004 L1.489525,1.25 L11.010475,1.25 Z M1.25,2.290625 L5.974125,5.417 C6.057625,5.4723 6.1538,5.5 6.25,5.5 C6.3462,5.5 6.442375,5.4723 6.525875,5.417 L11.25,2.290625 L11.25,7.233775 L8.29125,5.08105 C8.29125,5.08105 8.23095,5.119375 8.28515,5.18555 C8.33935,5.251725 9.987775,7.25 9.987775,7.25 L2.542225,7.25 C2.542225,7.25 4.18825,5.255625 4.2422,5.18945 C4.29615,5.123275 4.239025,5.08105 4.239025,5.08105 L1.25795,7.25 L1.25,7.25 L1.25,2.290625 Z" id="Shape"></path>
                            </g>
                        </g>
                    </g>
                </g>
            </g>
        </g>
    </g>
</svg>
