<?xml version="1.0" encoding="UTF-8"?>
<svg width="24px" height="24px" viewBox="0 0 24 24" version="1.1" xmlns="http://www.w3.org/2000/svg" xmlns:xlink="http://www.w3.org/1999/xlink">
    <!-- Generator: Sketch 63 (92445) - https://sketch.com -->
    <title>Artboard</title>
    <desc>Created with Sketch.</desc>
    <g id="Artboard" stroke="none" stroke-width="1" fill="none" fill-rule="evenodd">
        <g id="icon-share-blue">
            <polygon id="Path" points="0 0 24 0 24 24 0 24"></polygon>
            <path d="M18,15.75 C17.233125,15.75 16.528125,16.00875 15.9615,16.44 L8.970375,12.42375 C8.987625,12.28425 8.999625,12.143625 8.999625,12 C9.00028254,11.2338287 8.73895344,10.4904632 8.259,9.89325 C8.292,9.86325 8.37525,9.857625 8.45325,9.9075 C8.595,9.997125 9.12075,10.384875 9.699375,11.1825 L15.966375,7.5645 C16.5509329,8.00945554 17.2653618,8.25027726 18,8.25 C19.863961,8.25 21.375,6.73896103 21.375,4.875 C21.375,3.01103897 19.863961,1.5 18,1.5 C16.136039,1.5 14.625,3.01103897 14.625,4.875 C14.625,5.016375 14.63625,5.15475 14.6535,5.291625 L7.6725,9.32175 C7.08557974,8.86993309 6.36568476,8.62495783 5.625,8.625 C3.76103897,8.625 2.25,10.136039 2.25,12 C2.25,13.863961 3.76103897,15.375 5.625,15.375 C6.387,15.375 7.0875,15.119625 7.652625,14.693625 L14.652375,18.7155 C14.6349944,18.8513225 14.6258527,18.9880726 14.625,19.125 C14.625,20.988961 16.136039,22.5 18,22.5 C19.863961,22.5 21.375,20.988961 21.375,19.125 C21.375,17.261039 19.863961,15.75 18,15.75 L18,15.75 Z" id="Path" fill="#154273" fill-rule="nonzero"></path>
        </g>
    </g>
</svg>