<?xml version="1.0" encoding="UTF-8"?>
<svg width="24px" height="24px" viewBox="0 0 24 24" version="1.1" xmlns="http://www.w3.org/2000/svg" xmlns:xlink="http://www.w3.org/1999/xlink">
    <!-- Generator: Sketch 56.3 (81716) - https://sketch.com -->
    <title>01. Ontwerpprincipes/03 Icons/24/List</title>
    <desc>Created with Sketch.</desc>
    <g id="01.-Ontwerpprincipes/03-Icons/24/List" stroke="none" stroke-width="1" fill="none" fill-rule="evenodd">
        <g id="Icon" transform="translate(3.000000, 5.000000)" fill="#154273">
            <path d="M0,0 L2,0 L2,2 L0,2 L0,0 Z M4,0 L17,0 L17,2 L4,2 L4,0 Z M4,4 L13,4 L13,6 L4,6 L4,4 Z M0,4 L2,4 L2,6 L0,6 L0,4 Z M0,8 L2,8 L2,10 L0,10 L0,8 Z M4,8 L18,8 L18,10 L4,10 L4,8 Z M0,12 L2,12 L2,14 L0,14 L0,12 Z M4,12 L15,12 L15,14 L4,14 L4,12 Z" id="Combined-Shape"></path>
        </g>
    </g>
</svg>