<?xml version="1.0" encoding="UTF-8"?>
<svg width="24px" height="24px" viewBox="0 0 24 24" version="1.1" xmlns="http://www.w3.org/2000/svg" xmlns:xlink="http://www.w3.org/1999/xlink">
    <title>01. Ontwerpprincipes/03. Icons/02. 24px/04. System/28. Plus</title>
    <g id="01.-Ontwerpprincipes/03.-Icons/02.-24px/04.-System/28.-Plus" stroke="none" stroke-width="1" fill="none" fill-rule="evenodd">
        <g id="Icon" transform="translate(2.000000, 2.000000)" fill="#154273">
            <path d="M10.670241,0.00182382448 C12.2267051,0.0113077118 15.6383199,0.070107813 17.8263077,0.434668441 C18.7289493,0.585086829 19.4153508,1.27148834 19.5653316,2.17369232 C20,4.78244696 20,7.38993243 20,10 C20,10.0560834 20,10.1266475 19.9998833,10.2102908 L19.9990662,10.4990571 C19.9927631,11.9624631 19.9439137,15.5541665 19.5653316,17.8263077 C19.4153508,18.7285117 18.7289493,19.4149132 17.8263077,19.5653316 C15.5541665,19.9439137 11.9624631,19.9927631 10.4990571,19.9990662 L10.2102908,19.9998833 C10.1266475,20 10.0560834,20 10,20 L9.90518957,19.9999854 C9.87008272,19.9999708 9.83153089,19.9999416 9.78970924,19.9998833 L9.50094295,19.9990662 C8.03753688,19.9927631 4.44583346,19.9439137 2.17369232,19.5653316 C1.2710507,19.4149132 0.584649184,18.7285117 0.434668441,17.8263077 C0.070107813,15.6383199 0.0113077118,12.2267051 0.00182382448,10.670241 L0.00182382448,9.32975902 C0.0113077118,7.77329487 0.070107813,4.36168008 0.434668441,2.17369232 C0.584649184,1.27148834 1.2710507,0.585086829 2.17369232,0.434668441 C4.36168008,0.070107813 7.77329487,0.0113077118 9.32975902,0.00182382448 Z M10,5 C9.38888889,5 8.88888889,5.16666667 8.88888889,5.77777778 L8.88888889,8.88888889 L5.77777778,8.88888889 C5.16666667,8.88888889 5,9.38888889 5,10 C5,10.6111111 5.16666667,11.1111111 5.77777778,11.1111111 L8.88888889,11.1111111 L8.88888889,14.2222222 C8.88888889,14.8333333 9.38888889,15 10,15 C10.6111111,15 11.1111111,14.8333333 11.1111111,14.2222222 L11.1111111,11.1111111 L14.2222222,11.1111111 C14.8333333,11.1111111 15,10.6111111 15,10 C15,9.38888889 14.8333333,8.88888889 14.2222222,8.88888889 L11.1111111,8.88888889 L11.1111111,5.77777778 C11.1111111,5.16666667 10.6111111,5 10,5 Z" id="Combined-Shape"></path>
        </g>
    </g>
</svg>