<?xml version="1.0" encoding="UTF-8"?>
<svg width="24px" height="24px" viewBox="0 0 24 24" version="1.1" xmlns="http://www.w3.org/2000/svg" xmlns:xlink="http://www.w3.org/1999/xlink">
    <!-- Generator: Sketch 58 (84663) - https://sketch.com -->
    <title>01. Ontwerpprincipes/03 Icons/24/Map</title>
    <desc>Created with Sketch.</desc>
    <g id="01.-Ontwerpprincipes/03-Icons/24/Map" stroke="none" stroke-width="1" fill="none" fill-rule="evenodd">
        <g id="Icon" transform="translate(2.000000, 5.000000)" fill="#154273">
            <path d="M19.3040365,1.36363636 L9.21256593,1.36363636 L9.21256593,0.681818182 C9.21256593,0.305113636 8.90077429,0 8.51660245,0 L3.29687628,0 C2.91270444,0 2.6009128,0.305113636 2.6009128,0.681818182 L2.6009128,2.28 C5.08167465,2.43818182 16.5528928,3.17284091 16.7247958,3.2175 C16.8208388,3.24238636 16.855289,3.29045455 16.8653804,3.33204545 C16.8653804,3.34534091 16.873036,3.41079545 16.8615527,3.40909091 L0.696060729,3.40909091 C0.247164279,3.40909091 -0.0841143416,3.81920455 0.0188882546,4.24704545 L2.47459542,14.4746591 C2.56994242,14.8711364 2.88451792,15 3.29687628,15 L19.3040365,15 C19.6889043,15 20,14.6942045 20,14.3181818 L20,2.04545455 C20,1.66875 19.6882084,1.36363636 19.3040365,1.36363636" id="Fill-1"></path>
        </g>
    </g>
</svg>