<svg aria-hidden="true" focusable="false" role="img" xmlns="http://www.w3.org/2000/svg" width="64" height="64"><path fill="none" d="M0 0h64v64H0z"/><path fill="#154273" d="M53.91 10.09c-5.455-5.454-14.33-5.454-19.783 0l-6.36 6.36c-5.453 5.454-5.453 14.328.001 19.782a13.816 13.816 0 0 0 6.253 3.586 7.984 7.984 0 0 1-2.028 3.494l-6.359 6.36c-3.117 3.115-8.188 3.117-11.304 0-3.117-3.117-3.117-8.19 0-11.306l6.358-6.359a7.975 7.975 0 0 1 1.35-1.08 16.394 16.394 0 0 1-.55-6.371 13.882 13.882 0 0 0-5.038 3.212l-6.36 6.36c-5.453 5.454-5.453 14.328 0 19.782C12.818 56.637 16.4 58 19.983 58s7.164-1.363 9.891-4.09l6.359-6.359a14.035 14.035 0 0 0 3.921-12.103 13.889 13.889 0 0 0-3.922-7.68 13.785 13.785 0 0 0-4.49-2.996c-.85 1.489-.678 3.577-.284 5.1.263 1.02.63 1.56.67 1.882.024.185-.12.24-.12.24a8.003 8.003 0 0 1-2.335-6.047c.091-1.995 1.018-3.942 2.335-5.258l6.359-6.36a7.968 7.968 0 0 1 5.652-2.336c2.046 0 4.094.78 5.652 2.337 3.117 3.116 3.117 8.188 0 11.305l-6.358 6.359a7.983 7.983 0 0 1-1.37 1.09c.6 2.055.793 4.218.557 6.365a13.881 13.881 0 0 0 5.052-3.217l6.359-6.359c5.454-5.453 5.454-14.329 0-19.782z"/></svg>
