<?xml version="1.0" encoding="UTF-8"?>
<svg width="14px" height="18px" viewBox="0 0 14 18" version="1.1" xmlns="http://www.w3.org/2000/svg" xmlns:xlink="http://www.w3.org/1999/xlink">
    <!-- Generator: sketchtool 52.2 (67145) - http://www.bohemiancoding.com/sketch -->
    <title>0552FFDC-99E0-4E90-B8E3-3E8800B28520</title>
    <desc>Created with sketchtool.</desc>
    <g id="Visual---KPM" stroke="none" stroke-width="1" fill="none" fill-rule="evenodd">
        <g id="3.B-Lijst-(Geselecteerd)" transform="translate(-97.000000, -547.000000)">
            <g id="Sidebar---Zoekopdracht" transform="translate(0.000000, 242.000000)">
                <g id="Group-10" transform="translate(0.000000, 135.000000)">
                    <g id="Group-6">
                        <g id="Acties" transform="translate(43.000000, 162.000000)">
                            <g id="Group-9" transform="translate(44.000000, 0.000000)">
                                <g id="3906-verwijderen_24px" transform="translate(7.000000, 7.000000)">
                                    <g id="_x32_4px_Boxes">
                                        <rect id="Rectangle-path" x="0" y="0" width="20" height="20"></rect>
                                    </g>
                                    <g id="Production" transform="translate(3.333333, 1.666667)" fill="#FFFFFF" fill-rule="nonzero">
                                        <g id="Group">
                                            <path d="M0.833333333,15.8333333 C0.833333333,16.2939167 1.20608333,16.6666667 1.66666667,16.6666667 L11.6666667,16.6666667 C12.12725,16.6666667 12.5,16.2939167 12.5,15.8333333 L12.5,5 L0.833333333,5 L0.833333333,15.8333333 Z M9.16666667,6.66666667 L10.8333333,6.66666667 L10.8333333,14.1666667 L9.16666667,15 L9.16666667,6.66666667 Z M5.83333333,6.66666667 L7.5,6.66666667 L7.5,14.1666667 L5.83333333,15 L5.83333333,6.66666667 Z M2.5,6.66666667 L4.16666667,6.66666667 L4.16666667,14.1666667 L2.5,15 L2.5,6.66666667 Z" id="Shape"></path>
                                            <path d="M12.5,1.66666667 L10,1.66666667 L10,0.833333333 C10,0.37275 9.62725,0 9.16666667,0 L4.16666667,0 C3.70608333,0 3.33333333,0.37275 3.33333333,0.833333333 L3.33333333,1.66666667 L0.833333333,1.66666667 C0.37275,1.66666667 0,2.03941667 0,2.5 L0,4.16666667 L0.833333333,4.16666667 L12.5,4.16666667 L13.3333333,4.16666667 L13.3333333,2.5 C13.3333333,2.03941667 12.9605833,1.66666667 12.5,1.66666667 Z" id="Shape"></path>
                                        </g>
                                    </g>
                                </g>
                            </g>
                        </g>
                    </g>
                </g>
            </g>
        </g>
    </g>
</svg>