<?xml version="1.0" encoding="UTF-8"?>
<svg width="24px" height="24px" viewBox="0 0 24 24" version="1.1" xmlns="http://www.w3.org/2000/svg" xmlns:xlink="http://www.w3.org/1999/xlink">
    <title>01. Ontwerpprincipes/03. Icons/02. 24px/05. Files/05. Document-Notificatie</title>
    <g id="01.-Ontwerpprincipes/03.-Icons/02.-24px/05.-Files/05.-Document-Notificatie" stroke="none" stroke-width="1" fill="none" fill-rule="evenodd">
        <g id="Icon" transform="translate(4.000000, 2.000000)" fill="#154273">
            <path d="M9.26856,0.00024 C9.48096,0.00024 9.68416,0.08464 9.83416,0.23464 L9.83416,0.23464 L15.76576,6.16584 C15.91576,6.31584 16.00016,6.51904 16.00016,6.73144 L16.00016,6.73144 L16.00016,19.20024 C16.00016,19.63984 15.64016,20.00024 15.20016,20.00024 L15.20016,20.00024 L0.80016,20.00024 C0.35816,20.00024 0.00016,19.64184 0.00016,19.20024 L0.00016,19.20024 L0.00032181175,15.6587023 C0.625788719,15.8797328 1.29884941,16 2,16 L2.00016,15.99924 L2.00016,18.00024 L14.00016,18.00024 L14.00016,7.31664 L15.25936,6.94384 C15.39576,6.90024 15.34696,6.80024 15.34696,6.80024 L15.34696,6.80024 L9.60016,6.80024 C9.37936,6.80024 9.20016,6.62104 9.20016,6.40024 L9.20016,6.40024 L9.20016,0.65344 C9.20016,0.65344 9.09976,0.60984 9.05616,0.74584 L9.05616,0.74584 L8.68376,2.00024 L2.00016,2.00024 L2.00100413,4.00000008 C2.00066943,4.00000003 2.00033472,4 2,4 C1.29884941,4 0.625788719,4.12026719 0.00032181175,4.34129768 L0.00016,0.80024 C0.00016,0.35824 0.35816,0.00024 0.80016,0.00024 L0.80016,0.00024 Z" id="Combined-Shape"></path>
        </g>
        <circle id="Oval" fill="#D52B1E" cx="6" cy="12" r="4"></circle>
    </g>
</svg>