<?xml version="1.0" encoding="UTF-8"?>
<svg width="24px" height="24px" viewBox="0 0 24 24" version="1.1" xmlns="http://www.w3.org/2000/svg" xmlns:xlink="http://www.w3.org/1999/xlink">
    <title>01. Ontwerpprincipes/03. Icons/02. 24px/04. System/25. Uitloggen</title>
    <g id="01.-Ontwerpprincipes/03.-Icons/02.-24px/04.-System/25.-Uitloggen" stroke="none" stroke-width="1" fill="none" fill-rule="evenodd">
        <g id="Icon" transform="translate(2.000000, 2.000000)" fill="#154273">
            <path d="M3.33333333,16.6666667 L3.33333333,3.33333333 L13,3.33333333 C13.5522847,3.33333333 14,2.88561808 14,2.33333333 L14,1 C14,0.44771525 13.5522847,8.2412812e-13 13,8.24229573e-13 L1.22222222,8.24229573e-13 L1.22222222,8.24229573e-13 C0.555555556,8.24229573e-13 0,0.555555556 0,1.22222222 L0,18.7777778 C0,19.4444444 0.555555556,20 1.22222222,20 L13,20 C13.5522847,20 14,19.5522847 14,19 L14,17.6666667 C14,17.1143819 13.5522847,16.6666667 13,16.6666667 L3.33333333,16.6666667 L3.33333333,16.6666667 Z" id="Shape"></path>
            <path d="M11.8301136,11.2492034 L15.7956564,11.2492034 L14.6054935,13.0338233 C14.4761274,13.2321486 14.4700009,13.4865294 14.5896698,13.6908482 C14.7093388,13.895167 14.9342467,14.0143264 15.1705708,13.9986178 C15.2965888,13.9895206 15.4168908,13.9424624 15.515618,13.8636465 L19.7661998,10.4843663 C19.9139339,10.3667588 20,10.1882595 20,9.99946958 C20,9.81067969 19.9139339,9.63218038 19.7661998,9.51457286 L15.500616,6.13529263 C15.260335,5.94586676 14.9186428,5.95640913 14.6905051,6.16028731 C14.4646414,6.36587719 14.4222018,6.70527514 14.5904914,6.96011695 L15.7956564,8.74973577 L11.8301136,8.74973577 C11.190026,8.74973577 11,9.4495867 11,10.0744536 C11,10.6993205 11.190026,11.2492034 11.8301136,11.2492034 Z" id="Shape"></path>
        </g>
    </g>
</svg>