<svg aria-hidden="true" focusable="false" role="img" width="13" height="14" xmlns="http://www.w3.org/2000/svg"><g fill="none"><path d="M-.5.088h14v14h-14z"/><path d="M6.5.963A6.124 6.124 0 0 0 .375 7.088 6.124 6.124 0 0 0 6.5 13.213a6.124 6.124 0 0 0 6.125-6.125A6.124 6.124 0 0 0 6.5.963zM6.208 11.23c-.583 0-.933-.35-.933-.934 0-.525.292-.991.875-.991s.933.35.933.991c.059.525-.291.934-.875.934zm1.4-4.2l-.583.35c-.35.175-.467.408-.467.7 0 .233.059.408.175.7l-1.108.058c-.233-.233-.35-.525-.35-.933 0-.525.233-.934.875-1.342l.642-.35c.466-.292.641-.525.641-.933 0-.409-.35-.7-1.108-.7-.525 0-1.05.116-1.633.35V3.763c.641-.292 1.225-.408 1.983-.408 1.342 0 2.217.7 2.217 1.75 0 .933-.35 1.458-1.284 1.925z" fill="#154273"/></g></svg>
