<svg aria-hidden="true" focusable="false" role="img" xmlns="http://www.w3.org/2000/svg" width="64" height="64"><path fill="none" d="M0 0h64v64H0z"/><path d="M55 13h-6.922l-1.71 5.75c-.106.325-.368.225-.368.225V13h-.007c-.015-1.258-.057-3.347-.183-4.121C45.701 8.214 45.583 7 44.614 7H41.76c-.969 0-1.176 1.228-1.284 1.893-.126.774-.3 2.853-.399 4.107H24.078l-1.71 5.75c-.106.325-.368.225-.368.225V13h-.007c-.015-1.258-.057-3.347-.183-4.121C21.701 8.214 21.584 7 20.614 7H17.76c-.969 0-1.176 1.228-1.284 1.893-.126.774-.3 2.853-.399 4.107H9a2 2 0 0 0-2 2v40a2 2 0 0 0 2 2h46a2 2 0 0 0 2-2V15a2 2 0 0 0-2-2zm-3 39H12V26h40v26z"/><path d="M16 31h8v6h-8zM28 31h8v6h-8zM40 31h8v6h-8zM16 41h8v6h-8zM28 41h8v6h-8zM40 41h8v6h-8z"/></svg>
