<?xml version="1.0" encoding="UTF-8"?>
<svg width="64px" height="64px" viewBox="0 0 64 64" version="1.1" xmlns="http://www.w3.org/2000/svg" xmlns:xlink="http://www.w3.org/1999/xlink">
    <!-- Generator: Sketch 64 (93537) - https://sketch.com -->
    <title>01. Ontwerpprincipes/03. Icons/01. 64px/16. Wonen</title>
    <desc>Created with Sketch.</desc>
    <g id="01.-Ontwerpprincipes/03.-Icons/01.-64px/16.-Wonen" stroke="none" stroke-width="1" fill="none" fill-rule="evenodd">
        <g id="Icon" transform="translate(7.000000, 9.000000)" fill="#154273">
            <path d="M49.354,22.4327594 L25.6771667,0.264004063 C25.2943333,-0.0880013544 24.7055,-0.0880013544 24.32275,0.264004063 L0.646,22.4327594 C0.234333333,22.8116455 0,23.3453019 0,23.9043548 L0,25.3859274 C0,25.9381364 0.447833333,26.3859559 1,26.3859559 L5,26.3859559 L5,47 L45,47 L45,26.3859559 L49,26.3859559 C49.5521667,26.3859559 50,25.9381364 50,25.3859274 L50,23.9043548 C50,23.3453019 49.7655833,22.8116455 49.354,22.4327594 Z M25,42.0526294 L11.1666667,42.0526294 C11.1666667,42.0526294 12.00425,36.1439847 13.5938333,34.5751735 C14.8686667,33.3171396 19.2559167,31.794174 20.97475,31.2305036 C21.1279167,30.6458069 21.23975,30.0825487 21.3168333,29.5932538 C20.3280833,28.5193445 19.58775,27.2312966 19.3846667,25.7501363 C18.38275,25.4704449 18.1816667,23.5922582 18.1816667,22.8857736 C18.1816667,22.1786295 18.3189167,21.7963626 18.5995833,21.6775433 C18.665,21.6500029 18.7270833,21.6513222 18.7900833,21.6461275 C18.6495833,20.5522638 18.2635833,16.840664 19.3075,15.5580581 C20.1494167,14.5241401 21.7480833,13.9048118 23.2079167,13.525266 C25.3093333,12.9790763 26.1258333,13.3587045 27.3251667,13.9653346 C29.1540833,13.5260081 30.1133333,14.1811224 30.902,15.5258178 C31.7324167,16.9397763 31.3140833,20.5513568 31.1644167,21.638624 C31.2410833,21.6396959 31.3193333,21.6434889 31.4004167,21.6776257 C31.6810833,21.7963626 31.8184167,22.1787119 31.8184167,22.8858561 C31.8184167,23.5923406 31.6173333,25.4705274 30.6153333,25.7502188 C30.3629167,27.2867071 29.6370833,28.5597481 28.65775,29.6202994 C28.7319167,30.1019259 28.84725,30.6543823 29.013,31.2264633 C30.7235833,31.7870003 35.1286667,33.3143361 36.4063333,34.5751735 C37.9958333,36.1439847 38.8333333,42.0526294 38.8333333,42.0526294 L25,42.0526294 Z" id="Shape"></path>
        </g>
    </g>
</svg>