<?xml version="1.0" encoding="UTF-8"?>
<svg width="64px" height="64px" viewBox="0 0 64 64" version="1.1" xmlns="http://www.w3.org/2000/svg" xmlns:xlink="http://www.w3.org/1999/xlink">
    <!-- Generator: Sketch 64 (93537) - https://sketch.com -->
    <title>01. Ontwerpprincipes/03. Icons/01. 64px/13. Kinderen</title>
    <desc>Created with Sketch.</desc>
    <g id="01.-Ontwerpprincipes/03.-Icons/01.-64px/13.-Kinderen" stroke="none" stroke-width="1" fill="none" fill-rule="evenodd">
        <g id="Icon" transform="translate(8.000000, 7.000000)" fill="#154273">
            <path d="M26.8765131,12.2365573 C27.4898227,15.3030105 28.1801285,17.4378739 29.0019326,18.9217768 C31.4105855,23.2708888 33.6641978,21.8373574 36.8700644,22.549086 C39.8035012,23.2003688 39.4057813,24.6701677 43.1800496,27.023764 C44.770849,28.0157997 46.5640155,28.7077021 49,29.1659615 C48.6753257,30.9827996 46.967621,31.3130751 44.9804723,31.0446154 C43.0953134,30.7899373 41.4961292,29.8758364 39.6291914,28.2857101 L39.6291914,28.2857101 L41.4323553,37.7287066 C41.5267664,38.2253289 41.1459775,38.6852807 40.6403015,38.6852807 L40.6403015,38.6852807 L36.7891175,38.6852807 C36.7723476,38.7305748 36.7351798,38.9562389 36.9910815,39.0378809 L36.9910815,39.0378809 L40.124225,39.6557977 C40.6428815,40.1539513 41.3529403,40.8631814 42.113228,41.7031356 C43.4225677,43.1497233 44.3308012,44.5530319 43.0653212,46.1968339 L43.0653212,46.1968339 C41.1642793,44.9661584 42.620839,45.9112882 36.15928,41.7183679 C35.6668264,41.3988114 35.3607763,40.9003354 35.2708801,40.3638189 C35.2365341,40.1534677 35.1311581,39.4762335 35.0019978,38.6852807 L35.0019978,38.6852807 L34.1685032,38.6852807 L33.2656715,41.6370482 C33.2656715,41.6370482 33.6910457,43.4316423 34.2423551,45.7048861 C34.7936645,47.9781299 34.2405007,49.3302611 32.314304,50 L32.314304,50 C31.8090311,48.554057 30.4312414,44.7255038 29.8236562,42.8482199 C29.6337052,42.2611708 29.5205086,41.7333585 29.6279808,40.9553814 C29.6598275,40.7251233 29.764881,39.7759639 29.9320959,38.6771407 L29.9320959,38.6771407 L28.0713662,38.6771407 C27.5785901,38.6771407 27.1953019,38.2791659 27.2723788,37.7926179 C28.0140423,33.1112153 29.4932575,28.327861 30.3705312,25.7275654 C26.9797123,23.5560316 25.6965756,19.9977111 24.9131486,16.2779602 C24.4835014,14.2378758 25.1409931,12.6972345 26.8765131,12.2365573 Z M17.20425,12.357207 C18.961458,11.8355199 20.1644542,13.02614 20.4431726,14.8371753 C21.1322691,19.3148353 19.7855197,23.5858515 15.8627412,26.4110859 C15.8627412,26.4110859 15.6562622,28.2097903 16.3927658,33.1285431 C17.4409632,34.0904365 18.8784149,35.3955812 20.6509416,36.9710392 C21.153957,37.4180154 21.388977,38.0658327 21.3194788,38.6875374 C20.9227296,42.0191911 20.1525313,48.4745854 20.0915503,48.9856862 L20.0876998,49.017958 C18.0462909,48.543741 17.0258283,47.4795734 17.0258283,45.0540869 C17.0258283,43.4972461 17.1518442,41.3990532 17.2406922,39.9002403 C14.7201327,38.0506003 13.8256054,37.395046 13.2308395,36.9572576 C13.5235059,38.7587022 13.8422946,40.7204489 13.911551,41.1464705 C14.0387762,41.9293639 13.6404112,42.6776017 12.9787271,43.0333451 C11.5573195,43.794478 7.33486032,46.0556327 5.84258395,46.8548061 L5.84258395,46.8548061 C4.88968459,45.0449797 5.66948344,43.25369 7.35816076,42.1028029 C8.29106528,41.4669942 9.86033791,40.513402 9.86033791,40.513402 C7.6567934,33.9189318 7.51900636,32.8856318 7.17441783,26.961384 C3.01484562,25.51665 0.280792797,22.2955362 0.00755682549,17.6616037 C-0.0924980108,15.9653348 0.804286795,14.3191955 2.5032034,14.3745638 C2.19699207,20.398265 5.58885908,23.6308231 11.4306587,22.9007997 C17.7289534,22.113796 18.7635252,17.6066384 17.20425,12.357207 Z M32.3099503,16.0484275 C32.6958185,13.5859482 34.2808129,12.0617482 36.7192968,12.4438459 C38.9730703,12.7967685 40.1650209,14.4153445 39.8322841,17.0186221 C40.2478221,16.730578 40.8620185,16.4690494 41.7817007,16.3895027 C43.4766667,16.2427405 44.8482484,17.4431125 45.4792953,18.121475 C45.6017637,18.2530856 45.4744578,18.4574728 45.2986161,18.4190293 C43.1375606,17.9438451 43.4012023,19.2785679 41.6796302,19.6940317 C40.5211387,19.9737746 39.7774596,19.2361753 39.3818358,18.6417114 C38.6767758,20.1564014 37.2822161,20.9862812 35.4257595,20.6954969 C33.0493564,20.3232316 31.9030391,18.6438069 32.3099503,16.0484275 Z M9.23525721,12.4917189 C11.5077355,11.9209499 13.2797785,13.0037347 13.9531531,15.6824486 C14.5437266,18.0342719 13.603969,20.0066571 11.2707805,20.5924167 C8.93783393,21.1780152 7.22609805,20.0800785 6.58585997,17.5323304 C5.97835538,15.1149033 6.84127796,13.0927109 9.23525721,12.4917189 Z M25.5866846,0 C28.258341,0 30.4241464,2.16499877 30.4241464,4.83566009 C30.4241464,7.50632142 28.258341,9.67132018 25.5866846,9.67132018 C22.9150281,9.67132018 20.7492227,7.50632142 20.7492227,4.83566009 C20.7492227,2.16499877 22.9150281,0 25.5866846,0 Z" id="Combined-Shape"></path>
        </g>
    </g>
</svg>