<?xml version="1.0" encoding="UTF-8"?>
<svg width="24px" height="24px" viewBox="0 0 24 24" version="1.1" xmlns="http://www.w3.org/2000/svg" xmlns:xlink="http://www.w3.org/1999/xlink">
    <!-- Generator: sketchtool 62 (101010) - https://sketch.com -->
    <title>B526D507-FB1A-414F-AD20-64C8176F90F6</title>
    <desc>Created with sketchtool.</desc>
    <g id="Asset-Artboard-Page" stroke="none" stroke-width="1" fill="none" fill-rule="evenodd">
        <g id="01.-Ontwerpprincipes/03-Icons/24/Pijl/Omhoog-01.-Ontwerpprincipes/03-Icons/24/Play" fill="#FFFFFF">
            <path d="M21.6436526,4.2 C21.4432071,3.3 20.8418708,2.6 19.9398664,2.5 C17.233853,2 12.9242762,2 12.0222717,2 C11.1202673,2 6.81069042,2 4.20489978,2.4 C3.30289532,2.6 2.6013363,3.3 2.40089087,4.2 C2,6.8 2,11.1 2,12 C2,12.9 2,17.2 2.40089087,19.8 C2.6013363,20.7 3.20267261,21.4 4.10467706,21.5 C6.81069042,22 11.1202673,22 12.0222717,22 C12.9242762,22 17.233853,22 19.8396437,21.6 C20.7416481,21.4 21.4432071,20.8 21.5434298,19.9 C21.9443207,17.3 21.9443207,12.9 21.9443207,12.1 C22.0445434,9.4 22.0445434,6.8 21.6436526,4.2 Z M16.1314031,12.6 L10.2182628,17 C10.0178174,17.2 9.71714922,17.2 9.41648107,17 C9.21603563,16.9 9.0155902,16.6 9.0155902,16.3 L9.0155902,7.7 C9.0155902,7.4 9.21603563,7.1 9.41648107,7 C9.71714922,6.8 10.0178174,6.8 10.2182628,7 L16.1314031,11.3 C16.3318486,11.4 16.4320713,11.7 16.4320713,11.9 C16.4320713,12.1 16.3318486,12.5 16.1314031,12.6 Z" id="Shape"></path>
        </g>
    </g>
</svg>