<svg aria-hidden="true" focusable="false" role="img" width="16" height="16" xmlns="http://www.w3.org/2000/svg"><path d="M13.09 7.636v.728a.354.354 0 0 1-.101.261.354.354 0 0 1-.262.102h-4v4a.354.354 0 0 1-.102.262.354.354 0 0 1-.261.102h-.728a.354.354 0 0 1-.261-.102.354.354 0 0 1-.102-.262v-4h-4a.354.354 0 0 1-.262-.102.354.354 0 0 1-.102-.261v-.728c0-.106.034-.193.102-.261a.354.354 0 0 1 .262-.102h4v-4c0-.106.034-.193.102-.262a.354.354 0 0 1 .261-.102h.728c.106 0 .193.034.261.102a.354.354 0 0 1 .102.262v4h4c.106 0 .193.034.262.102a.354.354 0 0 1 .102.261zm1.455 5.091V3.273c0-.5-.178-.928-.534-1.284a1.75 1.75 0 0 0-1.284-.534H3.273c-.5 0-.928.178-1.284.534a1.75 1.75 0 0 0-.534 1.284v9.454c0 .5.178.928.534 1.284a1.75 1.75 0 0 0 1.284.534h9.454c.5 0 .928-.178 1.284-.534a1.75 1.75 0 0 0 .534-1.284zM16 3.273v9.454c0 .902-.32 1.673-.96 2.313-.64.64-1.411.96-2.313.96H3.273C2.37 16 1.6 15.68.96 15.04A3.152 3.152 0 0 1 0 12.727V3.273C0 2.37.32 1.6.96.96 1.6.32 2.371 0 3.273 0h9.454c.902 0 1.673.32 2.313.96.64.64.96 1.411.96 2.313z"/></svg>