<?xml version="1.0" encoding="UTF-8"?>
<svg width="24px" height="24px" viewBox="0 0 24 24" version="1.1" xmlns="http://www.w3.org/2000/svg" xmlns:xlink="http://www.w3.org/1999/xlink">
    <!-- Generator: Sketch 56.3 (81716) - https://sketch.com -->
    <title>01. Ontwerpprincipes/03 Icons/24/Opnieuw</title>
    <desc>Created with Sketch.</desc>
    <g id="01.-Ontwerpprincipes/03-Icons/24/Opnieuw" stroke="none" stroke-width="1" fill="none" fill-rule="evenodd">
        <g id="Icon" transform="translate(1.000000, 2.000000)" fill="#154273">
            <path d="M17.9933833,10.0207545 C17.9933833,12.5259648 16.693889,14.8307582 14.4947449,16.1334676 C11.1960287,18.0374274 6.89770163,16.9351349 4.89847971,13.5280489 C2.99921889,10.1209629 4.19875204,5.81200119 7.4974682,3.90804137 C10.1964178,2.40491519 13.495134,2.80574884 15.6942781,4.91012548 L13.8949783,5.11054231 C13.495134,5.11054231 13.1952507,5.51137595 13.1952507,5.81200119 C13.1952507,6.21283484 13.3951729,6.51346007 13.7950172,6.61366848 L18.9929942,7.81616942 C19.1929164,7.91637784 19.4927997,7.81616942 19.6927219,7.6157526 C19.8926441,7.51554419 19.9926052,7.31512736 19.9926052,7.01450213 L19.9926052,1.70345631 C19.9926052,1.30262266 19.6927219,1.00199743 19.3928386,0.901789015 C18.9929942,0.801580603 18.6931109,1.10220584 18.4931887,1.40283107 L17.9933833,2.90595725 C14.8945893,-0.200503514 9.8965345,-0.901962396 5.99805176,1.40283107 C1.19991916,4.10845819 -0.39945837,10.2211713 2.29949122,15.0311751 C4.09879094,18.2378442 7.4974682,20.0415957 10.9961066,20.0415957 C12.6954452,20.0415957 14.3947838,19.640762 15.9941614,18.7388863 C19.0929553,16.9351349 20.9922161,13.6282573 20.9922161,10.0207545 L17.9933833,10.0207545 Z" id="Shape"></path>
        </g>
    </g>
</svg>