<svg aria-hidden="true" focusable="false" role="img" xmlns="http://www.w3.org/2000/svg" width="64" height="64"><path fill="none" d="M0 0h64v64H0z"/><path fill="#fff" d="M51.5 38.4C48.8 46.6 41.1 52.5 32 52.5c-10.7 0-19.8-8.3-20.4-19.3 0 0 .1 0 .2.1.2.3 1 2.7 1.1 2.8l2.8 1.6c.7.4 1.5.2 2-.3.5-.6.5-1.4 0-2l-6.9-8.2c-.3-.4-.8-.6-1.2-.6-.5 0-.9.2-1.2.6l-6.9 8.2c-.5.6-.5 1.4 0 2 .5.6 1.3.7 2 .3l3.4-2C8.6 48 19.2 57.5 32 57.5c11.5 0 21.2-7.6 24.4-18-1.5.9-3.4.8-4.9-1.1zm11.1-11.2c-.5-.6-1.3-.7-2-.3l-3.3 2C55.8 16.3 45 6.5 32 6.5c-11.8 0-21.7 8-24.6 18.9 1.4-1 3.6-1 5 .7 2.5-8.4 10.4-14.6 19.6-14.6 11.1 0 20.2 8.8 20.5 20 0 .1-.1.1-.3-.1-.1-.2-.8-2.2-.9-2.7L48.4 27c-.7-.4-1.5-.2-2 .3-.5.6-.5 1.4 0 2l6.9 8.2c.3.4.8.6 1.2.6.5 0 .9-.2 1.2-.6l6.9-8.2c.5-.6.5-1.5 0-2.1zM41 44c1.1 0 2-.9 2-2V27.8c0-.5-.2-1-.6-1.4l-7.8-7.8c-.4-.4-.9-.6-1.4-.6H23c-1.1 0-2 .9-2 2v22c0 1.1.9 2 2 2h18zM24 21h9v5c0 1.1.9 2 2 2h5v13H24V21z"/></svg>
