<svg aria-hidden="true" focusable="false" role="img" width="38" height="32" xmlns="http://www.w3.org/2000/svg"><g fill="none"><path d="M48-7h-64v64h64z"/><g fill="#000"><path d="M15.438 15.588l.443-6.201c.05-.44.357-.761.795-.761.438 0 .761.285.794.76l.53 7.3c0 .683-.523 1.245-1.19 1.313-.04.023-7.024-.498-7.024-.498-.459-.045-.794-.239-.794-.677 0-.437.306-.642.794-.675h-.019l5.671-.562z"/><path d="M35.84 17.466l-2.776-1.164s-.146-1.644-1.01-3.197c-.18-.325-.334-.22-.334-.22.976 5.072-.472 10.512-4.39 14.429-6.248 6.248-16.378 6.248-22.627 0-6.248-6.248-6.248-16.38 0-22.627C9.95-.561 17.941-1.407 24.056 2.174c.908.532 2.192 1.408.736 3.422-1.14 1.574-1.807 1.48-2.787.991-.253-.126-.647-.33-.93-.476-4.173-2.14-9.419-1.462-12.914 2.033-4.339 4.34-4.339 11.374 0 15.712 4.339 4.339 11.373 4.339 15.712 0a11.035 11.035 0 0 0 3.228-7.323l-3.315 2.454a1.538 1.538 0 0 1-1.957-.088 1.53 1.53 0 0 1-.25-1.94l5.869-9.434a1.58 1.58 0 0 1 1.14-.734c.47-.06.936.099 1.266.43l7.706 7.72c.25.251.395.572.431.907.038.356-.048.727-.264 1.044a1.563 1.563 0 0 1-1.886.574z"/></g></g></svg>
