<?xml version="1.0" encoding="UTF-8"?>
<svg width="24px" height="24px" viewBox="0 0 24 24" version="1.1" xmlns="http://www.w3.org/2000/svg" xmlns:xlink="http://www.w3.org/1999/xlink">
    <!-- Generator: Sketch 63 (92445) - https://sketch.com -->
    <title>01. Ontwerpprincipes/03. Icons/02. 24px/04. System/15. User</title>
    <desc>Created with Sketch.</desc>
    <g id="01.-Ontwerpprincipes/03.-Icons/02.-24px/04.-System/15.-User" stroke="none" stroke-width="1" fill="none" fill-rule="evenodd">
        <g id="Icon" transform="translate(3.000000, 2.000000)" fill="#154273">
            <path d="M5.1154,1.45901716 C4.7874,1.96227155 4.753,2.73701052 4.7561,3.46772225 C4.7591,4.16904906 4.7419,4.82985878 4.804,5.17094451 C4.324,5.14767727 4.1231,5.53389342 4.1971,6.84207402 C4.2628,8.00172537 4.7245,8.2520488 5,8.41140935 C5.2432,9.58409838 5.7116,10.694708 6.5413,11.5345351 L6.5431,11.5222997 C6.4919,11.8272811 6.4273,12.1514179 6.3439,12.4734485 C5.2017,12.8756107 2.3995,13.9228372 1.5791,14.7905448 C0.5449,15.8835035 0,20 0,20 L18,20 C18,20 17.4551,15.8835035 16.4209,14.7905448 C15.6021,13.9244418 12.8088,12.8796223 11.6626,12.4757552 C11.568,12.1564323 11.4976,11.835906 11.4441,11.5345351 C12.2738,10.694708 12.7568,9.58409838 13,8.41140935 C13.2755,8.2520488 13.7226,8.00172537 13.7883,6.84207402 C13.8623,5.53389342 13.6614,5.14767727 13.1814,5.17094451 C13.2431,4.83236603 13.2481,4.18920732 13.2433,3.49921326 C13.2381,2.76980529 13.2038,1.98814632 12.91,1.45901716 C12.5451,0.801717582 12.0323,0.416203458 11.0323,0.653790076 C10.1569,0.231670163 9.2348,-0.221840468 7.6919,0.120448737 C5.9531,0.50616344 5.3389,1.1162265 5.1154,1.45901716 Z" id="Shape"></path>
        </g>
    </g>
</svg>