<?xml version="1.0" encoding="UTF-8"?>
<svg width="24px" height="24px" viewBox="0 0 24 24" version="1.1" xmlns="http://www.w3.org/2000/svg" xmlns:xlink="http://www.w3.org/1999/xlink">
    <title>01. Ontwerpprincipes/03. Icons/02. 24px/08. Social/05. Twitter</title>
    <g id="01.-Ontwerpprincipes/03.-Icons/02.-24px/08.-Social/05.-Twitter" stroke="none" stroke-width="1" fill="none" fill-rule="evenodd">
        <path d="M19.952468,7.98315853 C19.9646557,8.15674757 19.9646557,8.33033661 19.9646557,8.50552555 C19.9646557,13.8435886 15.8370912,20 8.28966078,20 L8.28966078,19.9968002 C6.06012594,20 3.87690433,19.3712397 2,18.1857145 C2.32419257,18.2241121 2.65001016,18.2433109 2.97664026,18.2441108 C4.82429413,18.2457107 6.61913467,17.6353493 8.07271989,16.5114202 C6.31687995,16.4786223 4.77716839,15.3514934 4.23928499,13.7059973 C4.8543571,13.8227899 5.488117,13.7987914 6.09181393,13.6364017 C4.17753402,13.2556257 2.80032501,11.5997302 2.80032501,9.67665163 C2.80032501,9.65905274 2.80032501,9.6422538 2.80032501,9.62545486 C3.37070892,9.93823512 4.0093439,10.1118242 4.6626041,10.1310229 C2.85963843,8.94469783 2.30387975,6.58324689 3.39264676,4.73696343 C5.47592931,7.26080412 8.54966484,8.79510727 11.8492789,8.95749702 C11.5185862,7.55438559 11.9703433,6.0840784 13.0363599,5.09774066 C14.6890108,3.5682372 17.2882389,3.64663226 18.8417632,5.2729296 C19.760715,5.09454086 20.6414788,4.76256182 21.4474914,4.29219151 C21.1411741,5.22733248 20.5001016,6.02168234 19.6437132,6.52645048 C20.4570384,6.43205643 21.2516758,6.21766997 22,5.89049062 C21.4491164,6.70323932 20.7552306,7.41119463 19.952468,7.98315853 Z" id="white_background" fill="#154273"></path>
    </g>
</svg>