<svg aria-hidden="true" focusable="false" role="img" width="16" height="15" xmlns="http://www.w3.org/2000/svg"><g fill="none"><path d="M0-1h16v16H0z"/><g fill="#333"><path d="M7.251 11.831c-.486.199-.949.322-1.251.322-.763 0-2.547-.774-3.159-1.598 1.016-.352 1.764-.615 1.846-1.156.056-.497.115-.993.155-1.32a3.77 3.77 0 0 1-.432-.504l-.02-.027a3.879 3.879 0 0 1-.603-1.343c1.46-.281 2.97-.28 4.43 0C7.954 7.333 7.2 8.539 6 8.539c-.28 0-.56-.049-.764-.146.093.222.296.435.822.566 1.3.325 1.703-.726 2.387-1.076.185-.095.584-.24 1.134-.33-.137-.463-.385-.875-.541-1.28a.62.62 0 0 0 .383-.49l.322-2.127a.632.632 0 0 0-.338-.658c.009-.895-.115-1.623-.69-1.969C8.029.614 7.256.8 7.256.8S6.512-.153 5.212.093c-1.384.262-2.187 1.37-2.459 2.85l-.047.011a.629.629 0 0 0-.45.701l.323 2.126c.038.262.23.462.474.517-.259.703-.999 1.4-.674 2.383.093.285.517.586 1.064.851-.124.052-.274.11-.462.177-.513.182-1.513.467-1.928.903-.57.598-.944 2.636-1.053 3.45h8.458c-.735-.387-1.198-1.197-1.207-2.23zM3.253 5.324l-.056-.381c.682-.367 2.054-.58 2.054-.58 0-.015-.003-.068-.087-.069 0 0-.71-.116-2.039.156l-.085-.585a.253.253 0 0 1 .186-.283 11.732 11.732 0 0 1 5.548 0c.125.03.205.155.186.283l-.055.377c-.65-.233-1.217-.221-1.217-.221-.083-.01-.093.043-.094.058 0 0 .668.141 1.265.479l-.112.766a.246.246 0 0 1-.293.207 12.41 12.41 0 0 0-4.908 0 .246.246 0 0 1-.293-.207z"/><path d="M15.974 11.73l-.911-2.399.001.001a.377.377 0 0 0 .297-.692c-.11-.047-1.093-.46-1.771-.326-.34.067-.59.172-.9.267A.754.754 0 0 0 12 7.533a.752.752 0 0 0-.69 1.048c-.31-.095-.56-.2-.9-.267-.679-.134-1.661.279-1.771.326a.377.377 0 0 0-.196.495c.081.19.299.277.488.199L8.02 11.73a.504.504 0 0 0-.016.192c.046 1.09.697 1.637 1.496 1.637.793 0 1.443-.537 1.496-1.612.004-.064.01-.13-.022-.217L9.955 9.049a1.08 1.08 0 0 1 .31.004c.414.081.726.255 1.235.348v4.41h-.75a.752.752 0 0 0-.75.754v.25h4v-.25a.752.752 0 0 0-.75-.754h-.75v-4.41c.509-.093.821-.267 1.235-.348a1.07 1.07 0 0 1 .304-.005l-1.019 2.683a.504.504 0 0 0-.016.192c.046 1.09.697 1.637 1.496 1.637.793 0 1.443-.537 1.496-1.612.004-.064.01-.13-.022-.217zm-5.699.072c0 .67-.36 1.005-.775 1.005a.69.69 0 0 1-.25-.049c.29-.112.5-.428.5-.956H8.742l.755-1.987c.001.003.781 1.987.778 1.987zm4.225 1.005a.69.69 0 0 1-.25-.049c.29-.112.5-.428.5-.956h-1.008l.755-1.987c.001.003.781 1.987.778 1.987 0 .67-.36 1.005-.775 1.005z"/></g></g></svg>
