<?xml version="1.0" encoding="UTF-8"?>
<svg width="18px" height="18px" viewBox="0 0 18 18" version="1.1" xmlns="http://www.w3.org/2000/svg" xmlns:xlink="http://www.w3.org/1999/xlink">
    <!-- Generator: sketchtool 52.2 (67145) - http://www.bohemiancoding.com/sketch -->
    <title>1095F135-B295-4A94-BF9F-9EBB432250F5</title>
    <desc>Created with sketchtool.</desc>
    <g id="Visual---KPM" stroke="none" stroke-width="1" fill="none" fill-rule="evenodd">
        <g id="1.A-Startscherm" transform="translate(-1270.000000, -391.000000)" fill="#154273" fill-rule="nonzero">
            <g id="Map" transform="translate(0.000000, 242.000000)">
                <g id="Group">
                    <g id="Group-2">
                        <g id="Nav" transform="translate(1234.000000, 30.000000)">
                            <g id="Group-5" transform="translate(30.000000, 113.000000)">
                                <g id="Group-3">
                                    <g id="icon-plus" transform="translate(3.000000, 3.000000)">
                                        <g id="icon" transform="translate(3.000000, 3.000000)">
                                            <path d="M16.6,7 L11,7 L11,1.4 C11,0.3 10.1,0 9,0 C7.9,0 7,0.3 7,1.4 L7,7 L1.4,7 C0.3,7 0,7.9 0,9 C0,10.1 0.3,11 1.4,11 L7,11 L7,16.6 C7,17.7 7.9,18 9,18 C10.1,18 11,17.7 11,16.6 L11,11 L16.6,11 C17.7,11 18,10.1 18,9 C18,7.9 17.7,7 16.6,7 Z" id="Shape"></path>
                                        </g>
                                    </g>
                                </g>
                            </g>
                        </g>
                    </g>
                </g>
            </g>
        </g>
    </g>
</svg>
