<svg aria-hidden="true" focusable="false" role="img" xmlns="http://www.w3.org/2000/svg" width="64" height="64"><path fill="none" d="M0 0h64v64H0z"/><path fill="#000" d="M20 15h23l.154 2H47l-.285-4.391c0-.888-.553-1.609-1.44-1.609H17.9a1.62 1.62 0 0 0-1.615 1.609L16 17h3.846L20 15zM55 19H9a2 2 0 0 0-2 2v17a2 2 0 0 0 2 2h4.484l11.992 12.377c.37.39.875.623 1.524.623h22.393C50.28 53 51 52.28 51 51.393L49.654 40H55a2 2 0 0 0 2-2V21a2 2 0 0 0-2-2zM28.19 49s-.67 2.072-.782 2.423c-.111.35-.314.35-.408.311V41a1 1 0 0 0-1-1h-8.514l1.135-9h25.751l2.139 18H28.189zm23.809-22.84a2.16 2.16 0 0 1 0-4.32 2.16 2.16 0 1 1 0 4.32z"/></svg>
