<?xml version="1.0" encoding="UTF-8"?>
<svg width="18px" height="18px" viewBox="0 0 18 18" version="1.1" xmlns="http://www.w3.org/2000/svg" xmlns:xlink="http://www.w3.org/1999/xlink">
    <!-- Generator: sketchtool 52.2 (67145) - http://www.bohemiancoding.com/sketch -->
    <title>9D40975A-1AA3-4684-B88C-EE976EAD8D4E</title>
    <desc>Created with sketchtool.</desc>
    <g id="Visual---KPM" stroke="none" stroke-width="1" fill="none" fill-rule="evenodd">
        <g id="2.A-Detail-(Gemeente)" transform="translate(-95.000000, -548.000000)">
            <g id="Sidebar---Zoekopdracht" transform="translate(0.000000, 241.000000)">
                <g id="Acties" transform="translate(43.000000, 299.000000)">
                    <g id="Group-7" transform="translate(44.000000, 0.000000)">
                        <g id="Crosshair" transform="translate(5.000000, 5.000000)">
                            <g id="box">
                                <rect id="Rectangle-path" x="0" y="0" width="24" height="24"></rect>
                            </g>
                            <g id="icon" transform="translate(3.000000, 3.000000)" fill="#FFFFFF" fill-rule="nonzero">
                                <path d="M14.6585886,11 C14.0560187,12.7048269 12.7048269,14.0560187 11,14.6585886 L11,16.6 C11,17.7 10.1,18 9,18 C7.9,18 7,17.7 7,16.6 L7,14.6585886 C5.2951731,14.0560187 3.94398126,12.7048269 3.34141142,11 L1.4,11 C0.3,11 0,10.1 0,9 C0,7.9 0.3,7 1.4,7 L3.34141142,7 C3.94398126,5.2951731 5.2951731,3.94398126 7,3.34141142 L7,1.4 C7,0.3 7.9,0 9,0 C10.1,0 11,0.3 11,1.4 L11,3.34141142 C12.7048269,3.94398126 14.0560187,5.2951731 14.6585886,7 L16.6,7 C17.7,7 18,7.9 18,9 C18,10.1 17.7,11 16.6,11 L14.6585886,11 Z M9,11 C10.1045695,11 11,10.1045695 11,9 C11,7.8954305 10.1045695,7 9,7 C7.8954305,7 7,7.8954305 7,9 C7,10.1045695 7.8954305,11 9,11 Z" id="Combined-Shape"></path>
                            </g>
                        </g>
                    </g>
                </g>
            </g>
        </g>
    </g>
</svg>