<?xml version="1.0" encoding="UTF-8"?>
<svg width="24px" height="24px" viewBox="0 0 24 24" version="1.1" xmlns="http://www.w3.org/2000/svg" xmlns:xlink="http://www.w3.org/1999/xlink">
    <title>01. Ontwerpprincipes/03. Icons/02. 24px/08. Social/02. LinkedIn</title>
    <g id="01.-Ontwerpprincipes/03.-Icons/02.-24px/08.-Social/02.-LinkedIn" stroke="none" stroke-width="1" fill="none" fill-rule="evenodd">
        <g id="linkedin" transform="translate(2.000000, 2.000000)" fill="#154273">
            <path d="M18.5575867,-1.11022302e-15 L1.44241332,-1.11022302e-15 C0.645751953,-1.11022302e-15 1.11022302e-15,0.645751953 1.11022302e-15,1.44241332 L1.11022302e-15,18.5575867 C1.11022302e-15,19.354248 0.645751953,20 1.44241332,20 L18.5575867,20 C19.354248,20 20,19.354248 20,18.5575867 L20,1.44241332 C20,0.645751953 19.354248,-1.11022302e-15 18.5575867,-1.11022302e-15 Z M7.09411621,15.1171875 L4.6586609,15.1171875 L4.6586609,7.79006957 L7.09411621,7.79006957 L7.09411621,15.1171875 Z M5.87646484,6.78955078 L5.8605957,6.78955078 C5.04333496,6.78955078 4.51477051,6.22695922 4.51477051,5.52383422 C4.51477051,4.80484008 5.0595093,4.2578125 5.89263914,4.2578125 C6.72576906,4.2578125 7.23846438,4.80484008 7.25433352,5.52383422 C7.25433352,6.22695922 6.72576906,6.78955078 5.87646484,6.78955078 Z M15.8758545,15.1171875 L13.4407043,15.1171875 L13.4407043,11.1973572 C13.4407043,10.2122498 13.0880738,9.54040527 12.2068787,9.54040527 C11.5341187,9.54040527 11.1334229,9.99359133 10.9573364,10.4310608 C10.8929443,10.587616 10.8772278,10.806427 10.8772278,11.0253906 L10.8772278,15.1171875 L8.44192504,15.1171875 C8.44192504,15.1171875 8.47381594,8.47747805 8.44192504,7.79006957 L10.8772278,7.79006957 L10.8772278,8.82751465 C11.2008667,8.32824707 11.7799377,7.61810305 13.072052,7.61810305 C14.6743774,7.61810305 15.8758545,8.66531371 15.8758545,10.9158325 L15.8758545,15.1171875 Z" id="Shape"></path>
        </g>
    </g>
</svg>