<?xml version="1.0" encoding="UTF-8"?>
<svg width="24px" height="24px" viewBox="0 0 24 24" version="1.1" xmlns="http://www.w3.org/2000/svg" xmlns:xlink="http://www.w3.org/1999/xlink">
    <title>01. Ontwerpprincipes/03. Icons/02. 24px/04. System/29. Min</title>
    <g id="01.-Ontwerpprincipes/03.-Icons/02.-24px/04.-System/29.-Min" stroke="none" stroke-width="1" fill="none" fill-rule="evenodd">
        <g id="Icon" transform="translate(2.000000, 2.000000)" fill="#154273">
            <path d="M19.5653316,2.17369232 C19.4153508,1.27148834 18.7289493,0.585086829 17.8263077,0.434668441 C15.217553,0 10.8692931,0 10,0 C9.13070688,0 4.78244696,0 2.17369232,0.434668441 C1.2710507,0.585086829 0.584649184,1.27148834 0.434668441,2.17369232 C0,4.78244696 0,9.13070688 0,10 C0,10.8692931 0,15.217553 0.434668441,17.8263077 C0.584649184,18.7285117 1.2710507,19.4149132 2.17369232,19.5653316 C4.78244696,20 9.13070688,20 10,20 C10.8692931,20 15.217553,20 17.8263077,19.5653316 C18.7289493,19.4149132 19.4153508,18.7285117 19.5653316,17.8263077 C20,15.217553 20,10.8692931 20,10 C20,7.38993243 20,4.78244696 19.5653316,2.17369232 Z M14.2222222,9.00039395 L11.1111111,9.00039395 L8.88888889,9.00039395 L5.77777778,9.00039395 C5.16666667,9.00039395 5,9.45039395 5,10.0003939 C5,10.5503939 5.16666667,11.0003939 5.77777778,11.0003939 L8.88888889,11.0003939 L11.1111111,11.0003939 L14.2222222,11.0003939 C14.8333333,11.0003939 15,10.5503939 15,10.0003939 C15,9.45039395 14.8333333,9.00039395 14.2222222,9.00039395 Z" id="Combined-Shape"></path>
        </g>
    </g>
</svg>