<?xml version="1.0" encoding="UTF-8"?>
<svg width="64px" height="64px" viewBox="0 0 64 64" version="1.1" xmlns="http://www.w3.org/2000/svg" xmlns:xlink="http://www.w3.org/1999/xlink">
    <!-- Generator: Sketch 64 (93537) - https://sketch.com -->
    <title>01. Ontwerpprincipes/03. Icons/01. 64px/15. Financieen</title>
    <desc>Created with Sketch.</desc>
    <g id="01.-Ontwerpprincipes/03.-Icons/01.-64px/15.-Financieen" stroke="none" stroke-width="1" fill="none" fill-rule="evenodd">
        <g id="Icon" transform="translate(7.000000, 9.000000)" fill="#154273">
            <path d="M37.0164813,29.4901961 C44.2970163,29.4901961 50,32.5933941 50,36.5554941 L50,36.5554941 L50,39.9236431 C50,43.8899824 44.2970163,47 37.0164813,47 C29.7337204,47 24.0305512,43.8899824 24.0305512,39.9236431 L24.0305512,39.9236431 L24.0305512,36.5554941 C24.0305512,32.5933941 29.7337204,29.4901961 37.0164813,29.4901961 Z M37.0182435,32.1166667 C31.2289114,32.1166667 26.5356755,34.2415275 26.5356755,36.8627451 C26.5356755,39.4839627 31.2289114,41.6088235 37.0182435,41.6088235 C42.8075757,41.6088235 47.5008115,39.4839627 47.5008115,36.8627451 C47.5008115,34.2415275 42.8075757,32.1166667 37.0182435,32.1166667 Z M42.698875,34.8097667 C42.9312088,35.3249235 42.9841679,35.5438882 42.9841679,36.0478941 C42.9841679,37.3434353 41.754329,38.2321961 39.1727803,38.5085745 L39.1727803,38.5085745 L39.1727803,39.0768137 L37.7659782,39.0768137 L37.7659782,38.5815627 L37.167036,38.5812877 C36.9232116,38.5804626 36.6797132,38.5771623 36.467413,38.5639608 L36.467413,38.5639608 L36.467413,39.0768137 L35.0251811,39.0768137 L35.0251811,38.4532804 C32.3883546,38.1217 31.0522264,37.1953392 31.0522264,35.8908588 C31.0522264,35.5261941 31.105371,35.2497235 31.2667526,34.8563059 L31.2667526,34.8563059 L33.2775299,34.8563059 C33.1182816,35.3249235 33.0475148,35.5438882 33.0475148,35.9197039 C33.0475148,36.5807451 33.7245754,36.9941608 35.0251811,37.1866765 L35.0251811,37.1866765 L35.0251811,35.5704294 L36.467413,35.5704294 L36.467413,37.3147745 C36.7152357,37.3235294 36.9474768,37.3325608 37.1975255,37.3325608 C37.4098257,37.3325608 37.5891077,37.3236216 37.7659782,37.3147745 L37.7659782,37.3147745 L37.7659782,35.5704294 L39.1727803,35.5704294 L39.1727803,37.1955235 C40.5090012,36.9941608 41.059739,36.5343902 41.059739,35.966151 C41.059739,35.5262863 40.9888795,35.2875078 40.7920682,34.809951 L40.7920682,34.8097667 Z M43.8801139,16.5882353 L42.1595452,27.0488686 C40.5587141,26.7235549 38.8361977,26.5411765 37.0162031,26.5411765 C28.0266929,26.5411765 21.2481103,30.7995608 21.2481103,36.4468412 L21.2481103,36.4468412 L21.2481103,36.8627451 L11.9733071,36.8627451 L12.7728879,16.5882353 L43.8801139,16.5882353 Z M32.8416142,0 C43.260928,0 44.1259889,13.8155118 44.1723629,14.7451902 L44.1723629,14.7451902 L12.7645406,14.7451902 C12.7642623,14.7416882 12.7636131,14.7337627 12.7634276,14.7308137 C12.7275341,7.87093333 10.256912,3.6553098 7.14707055,2.12430784 C6.87754477,1.99160196 6.6572682,2.00984902 6.55218468,2.17416471 C9.97356681,5.79592941 10.6323561,10.3571412 10.599987,14.1116118 L10.599987,14.1116118 L2.65379942,11.6465078 C2.35060611,11.5870667 2.29579202,11.7738686 2.2874447,11.8286098 L2.2874447,11.8286098 L10.5549115,16.452949 L9.75681466,36.7033137 L1.87684916,31.0202765 C1.45874104,30.7022431 1.19635686,30.2244098 1.15517673,29.702802 C0.895667739,26.4185157 0.151643031,14.2034 3.55271368e-15,10.8053922 C0.783813614,5.00227451 2.4666339,0 7.56777562,0 L7.56777562,0 Z M27.7404725,19.1267882 C26.5903041,19.1267882 25.6579082,20.0532412 25.6579082,21.1960784 C25.6579082,21.9842961 26.1066231,22.6613725 26.7593838,23.0107392 L26.7593838,23.0107392 L26.6271251,24.8823529 L28.4820857,24.8823529 L28.610078,23.0709176 C29.3245161,22.7430235 29.8231295,22.0293608 29.8231295,21.1960784 C29.8231295,20.0532412 28.8906408,19.1267882 27.7404725,19.1267882 Z" id="Combined-Shape"></path>
        </g>
    </g>
</svg>