<svg width="24" height="24" viewBox="0 0 24 24" fill="none" xmlns="http://www.w3.org/2000/svg">
<path fill-rule="evenodd" clip-rule="evenodd" d="M18.696 10.4428C18.6122 9.97822 18.28 9.62483 17.8343 9.44305C17.6962 9.54898 17.5603 9.64727 17.426 9.73998C16.1479 10.6242 15.1507 10.8401 14.9137 10.8786C14.7895 10.9006 14.7248 10.8597 14.7107 10.8015C14.9942 10.63 15.2806 10.4433 15.5693 10.2242C16.2029 9.745 16.7247 9.24107 17.1453 8.72048C17.2184 8.62936 17.2778 8.53686 17.3463 8.44432C16.9567 4.80551 14.7347 2 12.0424 2C9.14251 2 6.77799 5.24865 6.67151 9.29371C6.62211 9.30091 6.57004 9.30739 6.52193 9.31477C5.89033 9.41263 5.4093 9.85715 5.30449 10.4428C5 12.134 5 14.9528 5 15.5169C5 16.0799 5 18.8993 5.30449 20.59C5.4093 21.1746 5.89004 21.6202 6.5216 21.718C8.34727 22 11.3911 22 11.9997 22C12.6086 22 15.6521 22 17.4784 21.718C18.1107 21.6202 18.5907 21.1747 18.6959 20.59C19 18.8993 19 16.0798 19 15.5169C19 13.8243 19 12.1341 18.696 10.4428ZM12.0424 3.7023C13.9679 3.7023 15.606 6.15133 15.7526 9.13981C14.1492 9.03427 12.4393 9.03341 12 9.03341C11.5681 9.03341 9.91059 9.03427 8.33129 9.13467C8.48054 6.14854 10.117 3.7023 12.0424 3.7023ZM13.2517 15.4226V19.7226H10.7484V15.4226C10.2444 15.031 9.91389 14.4157 9.91389 13.7162C9.91389 12.5315 10.8479 11.571 12 11.571C13.1522 11.571 14.0862 12.5315 14.0862 13.7162C14.0862 14.4157 13.7557 15.031 13.2517 15.4226Z" fill="#154273"/>
</svg>
