<?xml version="1.0" encoding="UTF-8"?>
<svg width="8px" height="14px" viewBox="0 0 8 14" version="1.1" xmlns="http://www.w3.org/2000/svg" xmlns:xlink="http://www.w3.org/1999/xlink">
    <!-- Generator: sketchtool 52.2 (67145) - http://www.bohemiancoding.com/sketch -->
    <title>65F9126F-B3A9-4838-AF2F-38305A32FA01</title>
    <desc>Created with sketchtool.</desc>
    <g id="Visual---KPM" stroke="none" stroke-width="1" fill="000" fill-rule="evenodd">
        <g id="1.A-Startscherm" transform="translate(-697.000000, -173.000000)" fill="#154273" fill-rule="nonzero">
            <g id="Action-header" transform="translate(0.000000, 62.000000)">
                <g id="Group-8" transform="translate(684.000000, 101.000000)">
                    <g id="Group-7">
                        <g id="3935-hotspot-24px" transform="translate(10.161290, 10.200000)">
                            <g id="icon" transform="translate(2.822581, 0.566667)">
                                <g id="Group">
                                    <path d="M3.9516129,0 C1.75,0 0,1.75666667 0,3.96666667 C0,4.70333333 0.282258065,5.38333333 0.564516129,6.06333333 C0.790322581,6.63 2.65322581,10.3133333 3.5,12.0133333 C3.5,12.0133333 3.5,12.0133333 3.5,12.0133333 C3.55645161,12.1833333 3.72580645,12.2966667 3.9516129,12.2966667 C4.12096774,12.2966667 4.29032258,12.1833333 4.40322581,12.0133333 C4.40322581,12.0133333 4.40322581,12.0133333 4.40322581,12.0133333 C5.25,10.3133333 7.11290323,6.63 7.33870968,6.06333333 C7.62096774,5.38333333 7.90322581,4.70333333 7.90322581,3.96666667 C7.90322581,1.75666667 6.15322581,0 3.9516129,0 Z M3.9516129,6.34666667 C2.65322581,6.34666667 1.58064516,5.27 1.58064516,3.96666667 C1.58064516,2.66333333 2.65322581,1.58666667 3.9516129,1.58666667 C5.25,1.58666667 6.32258065,2.66333333 6.32258065,3.96666667 C6.32258065,5.27 5.25,6.34666667 3.9516129,6.34666667 Z" id="Shape"></path>
                                    <ellipse id="Oval" cx="3.9516129" cy="3.96666667" rx="1.01612903" ry="1.02"></ellipse>
                                </g>
                            </g>
                        </g>
                    </g>
                </g>
            </g>
        </g>
    </g>
</svg>
