<?xml version="1.0" encoding="UTF-8"?>
<svg width="25px" height="25px" viewBox="0 0 25 25" version="1.1" xmlns="http://www.w3.org/2000/svg" xmlns:xlink="http://www.w3.org/1999/xlink">
    <!-- Generator: Sketch 52.6 (67491) - http://www.bohemiancoding.com/sketch -->
    <title>Symbol / cross</title>
    <desc>Created with Sketch.</desc>
    <g id="PROJECT---BOUB" stroke="none" stroke-width="1" fill="none" fill-rule="evenodd">
        <g id="2.A-Resultatenpagina-(1366px)" transform="translate(-954.000000, -289.000000)">
            <g id="Symbol-/-cross" transform="translate(953.000000, 288.000000)">
                <circle id="Oval" fill="#154273" fill-rule="evenodd" cx="13.0833333" cy="13.0833333" r="12"></circle>
                <path d="M16.5557006,8.32068038 L13.0833751,11.3960395 L9.61104969,8.32061921 C9.245883,7.99716762 8.69446294,8.00536401 8.33932762,8.33927518 C8.00535607,8.69435015 7.9971597,9.24583267 8.3206717,9.61093905 L11.3960848,13.0833338 L8.3206717,16.5557285 C7.9971597,16.9208349 8.00535607,17.4723174 8.33926645,17.8273924 C8.69440177,18.1613036 9.24582183,18.1695 9.61098852,17.8459872 L13.083314,14.7705669 L16.5556394,17.8459872 C16.920745,18.1695 17.4722262,18.1613036 17.8273615,17.8274536 C18.1612719,17.4723174 18.1694683,16.9208961 17.8459563,16.5557285 L14.7706043,13.0833338 L17.8460174,9.61100022 C18.1695294,9.24583267 18.1612719,8.69441132 17.8274227,8.33927518 C17.4722262,8.00536401 16.9208061,7.99716762 16.5557006,8.32068038 Z M13.0978333,13.1123333 L13.0905333,13.1050333 L13.0833333,13.0978333 L13.0906333,13.0905333 L13.0978333,13.0833333 L13.1051333,13.0906333 L13.1123333,13.0978333 L13.1051333,13.1050333 L13.0978333,13.1123333 Z" id="Shape" fill="#FFFFFF" fill-rule="nonzero"></path>
            </g>
        </g>
    </g>
</svg>