<?xml version="1.0" encoding="UTF-8"?>
<svg width="24px" height="24px" viewBox="0 0 24 24" version="1.1" xmlns="http://www.w3.org/2000/svg" xmlns:xlink="http://www.w3.org/1999/xlink">
    <title>01. Ontwerpprincipes/03. Icons/02. 24px/04. System/27. RSS</title>
    <g id="01.-Ontwerpprincipes/03.-Icons/02.-24px/04.-System/27.-RSS" stroke="none" stroke-width="1" fill="none" fill-rule="evenodd">
        <g id="Icon" transform="translate(2.000000, 2.000000)" fill="#154273">
            <path d="M19.5653316,2.17369232 C19.4153508,1.27148834 18.7289493,0.585086829 17.8263077,0.434668441 C15.217553,0 10.8692931,0 10,0 C9.13070688,0 4.78244696,0 2.17369232,0.434668441 C1.2710507,0.585086829 0.584649184,1.27148834 0.434668441,2.17369232 C0,4.78244696 0,9.13070688 0,10 C0,10.8692931 0,15.217553 0.434668441,17.8263077 C0.584649184,18.7285117 1.2710507,19.4149132 2.17369232,19.5653316 C4.78244696,20 9.13070688,20 10,20 C10.8692931,20 15.217553,20 17.8263077,19.5653316 C18.7289493,19.4149132 19.4153508,18.7285117 19.5653316,17.8263077 C20,15.217553 20,10.8692931 20,10 C20,7.38993243 20,4.78244696 19.5653316,2.17369232 Z M4.96796443,17.2401705 C3.544701,17.2401705 2.76004832,16.4563056 2.76004832,15.032692 C2.76004832,13.6095161 3.544701,12.8260889 4.96796443,12.8260889 C6.3903088,12.8260889 7.17412996,13.6095161 7.17412996,15.032692 C7.17412996,16.4563056 6.3903088,17.2401705 4.96796443,17.2401705 Z M11.3693019,17.4360601 C10.9120947,17.4425811 10.4466161,17.4470888 9.96498845,17.4470888 C9.54900742,17.4470888 9.14383622,17.4439815 8.74579861,17.4391237 C9.11678979,16.7788058 9.32405819,15.9874571 9.32405819,15.0935684 C9.32405819,12.4513777 7.54901618,10.6761169 4.90704432,10.6761169 C4.012893,10.6761169 3.2213693,10.8834728 2.56087634,11.2546828 C2.55601849,10.8564701 2.55291121,10.4511676 2.55291121,10.0350116 C2.55291121,9.55351516 2.55741895,9.08816785 2.56393985,8.63109201 C3.28670961,8.39170051 4.07066207,8.25668721 4.90704432,8.25668721 C8.86833905,8.25668721 11.7434879,11.1320111 11.7434879,15.0935684 C11.7434879,15.9297318 11.6086058,16.7134654 11.3693019,17.4360601 Z M16.637184,17.1504096 C15.8823349,17.2404331 14.9571546,17.3121192 13.894554,17.3620982 C14.0637911,16.639416 14.1629175,15.883429 14.1629175,15.0935684 C14.1629175,9.81662699 10.1837669,5.83725754 4.90708809,5.83725754 C4.11700861,5.83725754 3.36080281,5.93642777 2.63790176,6.10579616 C2.68788075,5.0433268 2.75956691,4.11819025 2.84959036,3.36312233 C3.51520377,3.25629333 4.20147399,3.19791156 4.90704432,3.19791156 C11.6884322,3.19791156 16.8023073,8.31191793 16.8023073,15.0935684 C16.8023073,15.7989637 16.7439255,16.4849713 16.637184,17.1504096 Z" id="Shape"></path>
        </g>
    </g>
</svg>