<?xml version="1.0" encoding="UTF-8"?>
<svg width="18px" height="18px" viewBox="0 0 18 18" version="1.1" xmlns="http://www.w3.org/2000/svg" xmlns:xlink="http://www.w3.org/1999/xlink">
    <!-- Generator: sketchtool 52.2 (67145) - http://www.bohemiancoding.com/sketch -->
    <title>E1B370A8-65E6-4828-9E78-14F6ED502B2E</title>
    <desc>Created with sketchtool.</desc>
    <g id="Visual---KPM" stroke="none" stroke-width="1" fill="none" fill-rule="evenodd">
        <g id="2.A-Detail-(Gemeente)" transform="translate(-139.000000, -549.000000)">
            <g id="Sidebar---Zoekopdracht" transform="translate(0.000000, 241.000000)">
                <g id="Acties" transform="translate(43.000000, 300.000000)">
                    <g id="Group-9" transform="translate(88.000000, 0.000000)">
                        <g id="icon-plus" transform="translate(5.000000, 5.000000)">
                            <g id="box">
                                <rect id="Rectangle-path" x="0" y="0" width="24" height="24"></rect>
                            </g>
                            <g id="icon" transform="translate(3.000000, 3.000000)" fill="#FFFFFF" fill-rule="nonzero">
                                <path d="M16.6,7 L11,7 L11,1.4 C11,0.3 10.1,0 9,0 C7.9,0 7,0.3 7,1.4 L7,7 L1.4,7 C0.3,7 0,7.9 0,9 C0,10.1 0.3,11 1.4,11 L7,11 L7,16.6 C7,17.7 7.9,18 9,18 C10.1,18 11,17.7 11,16.6 L11,11 L16.6,11 C17.7,11 18,10.1 18,9 C18,7.9 17.7,7 16.6,7 Z" id="Shape"></path>
                            </g>
                        </g>
                    </g>
                </g>
            </g>
        </g>
    </g>
</svg>