<?xml version="1.0" encoding="UTF-8"?>
<svg width="64px" height="64px" viewBox="0 0 64 64" version="1.1" xmlns="http://www.w3.org/2000/svg" xmlns:xlink="http://www.w3.org/1999/xlink">
    <!-- Generator: Sketch 56.3 (81716) - https://sketch.com -->
    <title>01. Ontwerpprincipes/03 Icons/64/Formulier</title>
    <desc>Created with Sketch.</desc>
    <g id="01.-Ontwerpprincipes/03-Icons/64/Formulier" stroke="none" stroke-width="1" fill="none" fill-rule="evenodd">
        <g id="Icon" transform="translate(12.000000, 7.000000)" fill="#154273">
            <path d="M38,0 C39.1045,0 40,0.8955 40,2 L40,48 C40,49.1045 39.1045,50 38,50 L2,50 C0.8999,50 0,49.0996 0,48 L0,16.8286 C0,16.2979 0.2109,15.7891 0.5859,15.4141 L15.4141,0.5859 C15.7891,0.2109 16.2979,0 16.8286,0 L38,0 Z M35,45 L35,5 L18.2915,5 L17.3599,1.8651 C17.2509,1.5245 17,1.6341 17,1.6341 L17,16 C17,16.5522 16.5522,17 16,17 L1.6331,17 C1.6331,17 1.5104,17.2504 1.8516,17.3594 L5,18.2918 L5,45 L35,45 Z M21,14 L31,14 L31,17 L21,17 L21,14 Z M16,24 L31,24 L31,27 L16,27 L16,24 Z M9,24 L14,24 L14,27 L9,27 L9,24 Z M16,30 L31,30 L31,33 L16,33 L16,30 Z M9,30 L14,30 L14,33 L9,33 L9,30 Z M9,36 L14,36 L14,39 L9,39 L9,36 Z M16,36 L31,36 L31,39 L16,39 L16,36 Z" id="Combined-Shape"></path>
        </g>
    </g>
</svg>