<?xml version="1.0" encoding="UTF-8"?>
<svg width="24px" height="24px" viewBox="0 0 24 24" version="1.1" xmlns="http://www.w3.org/2000/svg" xmlns:xlink="http://www.w3.org/1999/xlink">
    <!-- Generator: Sketch 64 (93537) - https://sketch.com -->
    <title>01. Ontwerpprincipes/03. Icons/02. 24px/03. Meldingen/04. Bevestiging</title>
    <desc>Created with Sketch.</desc>
    <g id="01.-Ontwerpprincipes/03.-Icons/02.-24px/03.-Meldingen/04.-Bevestiging" stroke="none" stroke-width="1" fill="none" fill-rule="evenodd">
        <g id="icon" transform="translate(5.000000, 5.000000)" fill="#39870D">
            <path d="M7,0 C10.8666667,0 14,3.13333333 14,7 C14,10.8666667 10.8666667,14 7,14 C3.13333333,14 0,10.8666667 0,7 C0,3.13333333 3.13333333,0 7,0 Z M9.18035634,4.15736529 L6.43022229,7.25084028 L4.77696931,5.8110397 C4.60209869,5.65904373 4.34403551,5.65698926 4.16781414,5.80630398 C3.99090007,5.95540976 3.94829938,6.21145247 4.0666808,6.41038786 L6.06932867,9.77063059 C6.15387198,9.91242385 6.30609151,9.99947768 6.47046781,10 L6.47216491,10 C6.63584852,10 6.78806805,9.91413011 6.87330406,9.77317256 L9.93158307,4.71708655 C10.0577227,4.50864488 10.004974,4.23794231 9.8101538,4.09277135 C9.6146409,3.94756558 9.34203114,3.97559691 9.18035634,4.15736529 Z" id="Combined-Shape"></path>
        </g>
    </g>
</svg>
