<?xml version="1.0" encoding="UTF-8"?>
<svg width="24px" height="24px" viewBox="0 0 24 24" version="1.1" xmlns="http://www.w3.org/2000/svg" xmlns:xlink="http://www.w3.org/1999/xlink">
    <!-- Generator: Sketch 59.1 (86144) - https://sketch.com -->
    <title>01. Ontwerpprincipes/03 Icons/24/Tevreden</title>
    <desc>Created with Sketch.</desc>
    <g id="01.-Ontwerpprincipes/03-Icons/24/Tevreden" stroke="none" stroke-width="1" fill="none" fill-rule="evenodd">
        <g id="Icon" transform="translate(2.000000, 2.000000)" fill="#154273">
            <path d="M18.9800809,10.4063892 C19.4987812,10.0277355 19.937132,9.63217971 19.9958891,8.81312233 C20.0673288,7.81768183 19.1977312,7.12497431 18.1609326,7.12497431 L13.0780387,7.12497431 C12.8011497,7.12497431 12.6087442,6.85204755 12.7009335,6.59455826 C13.366647,4.73453961 13.5315603,3.92260722 13.5619423,2.22100088 C13.5870666,0.813537944 13.0135423,0.0978721145 12.4642193,0.012847214 C11.9274985,-0.0703172721 11.5367475,0.246190691 11.354496,1.08187305 C10.9012954,3.16019353 9.90101935,5.61859274 8.58560595,7.19171173 C7.64155853,8.32070624 6.40324381,8.82345357 5.21750549,9.01875751 C5.04211703,10.5270787 4.70458456,13.3983316 4.67580801,13.5669168 C4.63868345,13.7844665 4.45261918,13.7474561 4.41481233,13.7338791 C4.41481233,13.7389062 4.41481233,9.11415323 4.41481233,9.11169907 C4.41481233,9.11169907 4.40012305,8.70834537 4.01346576,8.70834537 L0,8.70834537 L0,19 L4.01346576,19 C4.23512947,19 4.41481233,18.8227856 4.41481233,18.6041671 L4.41481233,17.0208356 C4.97360717,17.0208356 5.53878342,17.0208356 5.85295752,17.0208356 C8.19236657,17.0208356 7.35684327,18.8660502 11.9400606,18.9299772 C13.1273241,18.946523 15.4324581,19.0994332 16.8590847,18.6335775 C18.1943647,18.197528 18.4953747,17.0316023 18.0676997,16.3445552 C18.4726584,16.1477075 19.1308267,15.6535893 19.2311633,14.7959383 C19.333587,13.9203164 18.5942263,13.4282169 18.5942263,13.4282169 C18.6185078,13.4004691 19.6913473,13.0199549 19.7328466,11.8749688 C19.7663189,10.9513719 18.9800809,10.4063892 18.9800809,10.4063892 Z" id="Path"></path>
        </g>
    </g>
</svg>