<svg width="22px" height="20px" viewBox="0 0 22 20" version="1.1" xmlns="http://www.w3.org/2000/svg" xmlns:xlink="http://www.w3.org/1999/xlink">
    <g id="☑️-Visual" stroke="none" stroke-width="1" fill="none" fill-rule="evenodd">
        <g id="6.A-Design-tweaks" transform="translate(-1283.000000, -59.000000)" fill="#FFFFFF">
            <g id="Map" transform="translate(0.000000, -7.000000)">
                <g id="Map-actions" transform="translate(884.000000, 47.000000)">
                    <g id="Object-selecteren" transform="translate(216.000000, 0.000000)">
                        <g id="3903-menu_24px" transform="translate(181.073298, 17.000000)">
                            <g id="1005-kaart" transform="translate(1.000000, 0.000000)">
                                <g id="Production" transform="translate(1.125000, 2.250000)">
                                    <path d="M8.625,0.375 C8.625,0.375 7.6744125,5.41305 7.644825,5.523 C7.6090125,5.6557875 7.500075,5.6208375 7.500075,5.6208375 L7.5,0 L0.4389,3.218925 C0.1715625,3.3408 0,3.6075375 0,3.90135 L0,18.7495875 C0,19.0225125 0.282225,19.2040125 0.53055,19.0908 L7.4859375,15.712425 L13.928625,18.96285 C14.1318,19.0653375 14.3704875,19.0700625 14.5775625,18.975675 L21.3111375,15.906075 C21.5784375,15.7842 21.75,15.5174625 21.75,15.22365 L21.75,0.37545 C21.75,0.102525 21.467775,-0.078975 21.21945,0.0342375 L14.25,3.4062375 L8.625,0.375 Z" id="Path"></path>
                                </g>
                            </g>
                        </g>
                    </g>
                </g>
            </g>
        </g>
    </g>
</svg>