<?xml version="1.0" encoding="utf-8" standalone="no"?>
<!-- Generator: Adobe Illustrator 21.1.0, SVG Export Plug-In . SVG Version: 6.00 Build 0)  --><svg xmlns="http://www.w3.org/2000/svg" xmlns:xlink="http://www.w3.org/1999/xlink" height="70" id="Laag_1" style="enable-background:new 0 0 40 70;" version="1.1" viewBox="0 0 40 70" width="40" x="0px" xml:space="preserve" y="0px">
<style type="text/css">
	.st0{fill:#154273;}
	.st1{fill:#FFFFFF;}
</style>
<g>
	<rect class="st0" height="60" width="40"/>
</g>
<path class="st1" d="M20.7,41.9H20V40h0.7V41.9z M23.9,33.4h-0.7v-1.9h0.7V33.4z M11,30c-0.1,0-0.4,0-0.4,0.1c0,0.1,0.2,0,0.4,0.1  c0.6,0.1,0.8,0.4,1.2,0.4c0.4,0,0.7-0.2,0.6-0.8c0-0.1-0.1-0.1-0.1,0c-0.1,0.2-0.3,0.4-0.6,0.4C11.6,30.2,11.6,30,11,30z M7.1,32  c0.1,0.1,0.7,0.9-0.3,1.3c0,0-0.1,0.1,0,0.1C7.6,33.6,8,33.1,8,33.1c0.4,0.9-0.2,1.3-0.2,1.3c0.1,0.2,0.4,0.4,1,0.5  c0.2-0.1,0.5-0.3,0.6-0.6c0,0,0.1,0.4,0,0.7c1.5,0.1,2.1-1.1,3.2-0.9c0,0,0.1,0,0.1,0c0-0.8-0.5-2.1-1.9-2.4s-1.1-0.9-1.1-0.9  c0.6,0,1,0.2,1,0.2c0.1-0.2-0.1-0.4-0.1-0.4c0.1-0.1,0.1-0.3,0.1-0.3c-0.7,0-0.9-0.1-0.9-0.1c-0.1-0.4,0.2-1,1.2-0.4  c0.3-0.2,0.2-0.6,0.2-0.6c0.1,0,0.1-0.2,0.1-0.2c0-0.2-0.8-0.6-1-0.7c-0.1-0.3-0.4-0.6-1.3-0.5c-0.4,0.1-0.8-0.1-0.6-0.3  c0,0-0.1,0-0.1,0C8.2,27.7,8,28,8.4,28.2c0.4,0.2,0.5,0.7,0.5,0.7c0,0.1-0.1,0.1-0.1,0c-0.2-0.7-1.2-0.9-1.8-0.5  c0,0.4,0.5,0.7,0.7,0.7c0.1,0,0.3-0.1,0.3-0.3c0-0.1,0.1-0.1,0.1,0c0.1,0.3-0.3,0.8-0.9,0.5c-0.6,0.6-0.4,1.3-0.3,1.6  c0.1,0.5-0.1,1-0.6,0.7c0,0,0,0,0,0C6.3,31.9,6.7,32.2,7.1,32z M10.4,29c-0.3,0.3-0.7,0.2-0.8-0.3C10.1,28.7,10.4,28.7,10.4,29z   M28.1,30.2c-0.3,0-0.6-0.1-0.6-0.4c0-0.1-0.1-0.1-0.1,0c-0.1,0.5,0.2,0.8,0.6,0.8c0.4,0,0.6-0.3,1.2-0.4c0.3,0,0.4,0,0.4-0.1  c0-0.1-0.4-0.1-0.4-0.1C28.5,30,28.4,30.2,28.1,30.2z M33.8,31.6C33.8,31.5,33.8,31.5,33.8,31.6c-0.5,0.2-0.7-0.3-0.6-0.8  c0.1-0.3,0.3-1-0.3-1.6c-0.6,0.3-1-0.2-0.9-0.5c0-0.1,0.1-0.1,0.1,0c0,0.2,0.2,0.3,0.3,0.3c0.2,0,0.7-0.3,0.7-0.7  c-0.6-0.4-1.6-0.2-1.8,0.5c0,0.1-0.1,0.1-0.1,0c0-0.1,0-0.5,0.5-0.7c0.4-0.2,0.3-0.5,0.1-0.6c0,0-0.1,0-0.1,0  c0.1,0.3-0.2,0.4-0.6,0.3c-1-0.1-1.3,0.2-1.3,0.5c-0.2,0-1,0.5-1,0.7c0,0,0,0.2,0.1,0.2c0,0,0,0.4,0.2,0.6c1-0.6,1.3,0,1.2,0.4  c0,0-0.2,0.1-0.9,0.1c0,0,0,0.3,0.1,0.3c0,0-0.2,0.2,0,0.4c0,0,0.4-0.3,1-0.2c0,0,0.4,0.6-1.1,0.9c-1.5,0.3-1.9,1.7-1.9,2.4  c0,0,0,0.1,0,0c1.2-0.2,1.7,1,3.2,0.9c-0.1-0.4,0-0.7,0-0.7c0.1,0.3,0.4,0.5,0.6,0.6c0.5-0.1,0.9-0.4,1-0.5c0,0-0.6-0.5-0.2-1.3  c0,0,0.4,0.6,1.1,0.3c0.1,0,0-0.1,0-0.1c-1-0.3-0.3-1.2-0.3-1.3C33.4,32.2,33.8,31.9,33.8,31.6z M30.5,28.7  c-0.1,0.5-0.6,0.6-0.8,0.3C29.7,28.7,29.9,28.7,30.5,28.7z M19.8,20.2c0,0.1,0.1,0.2,0.1,0.3c0.1,0.1,0.1,0.2,0,0.2  c0,0-0.1,0.1-0.2,0c-0.1,0-0.2-0.1-0.3-0.1c-0.2,0-0.3,0.1-0.3,0.3c0,0.1,0.1,0.3,0.3,0.3c0.1,0,0.2-0.1,0.3-0.1  c0.1-0.1,0.2-0.1,0.2,0c0,0,0,0.5-0.1,0.8c-0.4,0.1-0.5,0.4-0.5,0.5c0,0.4,0.5,0.7,0.7,0.8c0.3-0.1,0.7-0.4,0.7-0.8  c0-0.2-0.2-0.5-0.5-0.5c0-0.4-0.1-0.8-0.1-0.8c0,0,0.1-0.1,0.2,0c0.1,0,0.2,0.1,0.3,0.1c0.2,0,0.3-0.1,0.3-0.3  c0-0.1-0.1-0.3-0.3-0.3c-0.1,0-0.2,0.1-0.3,0.1c-0.1,0.1-0.2,0.1-0.2,0c0,0-0.1-0.1,0-0.2c0-0.1,0.1-0.2,0.1-0.3  c0-0.2-0.1-0.3-0.3-0.3C19.9,19.8,19.8,20,19.8,20.2z M20,23.4c-0.3,0-0.5,0.2-0.5,0.5s0.2,0.5,0.5,0.5s0.5-0.2,0.5-0.5  C20.6,23.7,20.3,23.4,20,23.4z M20,28.5c2.1,0,3.3,0.4,3.3,0.4c0-1.1,0-1.7,0.6-1.6c-0.3-0.9,1.1-1.3,1.1-2.4c0-0.8-0.5-0.9-0.7-0.9  c-0.5,0-0.4,0.3-0.8,0.3c0,0-0.1,0-0.1,0c0,0.1,0.1,0.4,0.3,0.4c0.3,0,0.3-0.3,0.5-0.3c0.1,0,0.2,0.1,0.2,0.3c0,0.5-0.3,1.1-0.7,1.5  c-0.1-0.1-0.2-0.2-0.4-0.2c-0.2,0-0.4,0.2-0.4,0.5c0,0.1,0,0.2,0.1,0.3C22.9,27,22.7,27,22.7,27c-0.2,0-0.4-0.1-0.4-0.5  c0-0.9,1.1-1.6,1.1-2.7c0-0.5-0.4-1-1.1-1c-0.8,0-0.6,0.7-1.3,0.7c0,0-0.1,0-0.1,0c0,0,0.1,0.4,0.5,0.4c0.4,0,0.5-0.6,0.8-0.6  c0.1,0,0.3,0.1,0.3,0.5c0,0.3-0.2,0.9-0.4,1.4c-0.1-0.1-0.2-0.1-0.3-0.1c-0.3,0-0.5,0.3-0.5,0.6c0,0.2,0.1,0.4,0.2,0.5  c-0.2,0.2-0.3,0.4-0.6,0.4c-0.5,0-0.7-0.3-0.7-0.5c0-0.3,0.6-0.4,0.6-0.9c0-0.3-0.2-0.5-0.4-0.5c-0.2,0-0.3,0.1-0.4,0.1  c0,0-0.1-0.1-0.4-0.1c-0.2,0-0.4,0.2-0.4,0.5c0,0.5,0.6,0.6,0.6,0.9c0,0.3-0.2,0.5-0.7,0.5c-0.2,0-0.4-0.2-0.6-0.4  c0.1-0.1,0.2-0.3,0.2-0.5c0-0.3-0.2-0.6-0.5-0.6c-0.1,0-0.3,0.1-0.3,0.1c-0.2-0.5-0.4-1.1-0.4-1.4c0-0.4,0.2-0.5,0.3-0.5  c0.3,0,0.4,0.6,0.8,0.6c0.4,0,0.5-0.4,0.5-0.4c0,0,0,0-0.1,0c-0.7,0-0.5-0.7-1.3-0.7c-0.7,0-1.1,0.5-1.1,1c0,1.1,1.1,1.8,1.1,2.7  c0,0.4-0.3,0.5-0.4,0.5c-0.1,0-0.2,0-0.3-0.1c0-0.1,0.1-0.2,0.1-0.3c0-0.3-0.2-0.5-0.4-0.5c-0.1,0-0.3,0.1-0.4,0.2  c-0.4-0.4-0.7-1-0.7-1.5c0-0.3,0.1-0.3,0.2-0.3c0.2,0,0.2,0.3,0.5,0.3c0.2,0,0.3-0.2,0.3-0.4c0,0,0,0-0.1,0c-0.4,0-0.3-0.3-0.8-0.3  c-0.2,0-0.7,0.1-0.7,0.9c0,1.2,1.5,1.5,1.1,2.4c0.6-0.1,0.6,0.5,0.6,1.6C16.7,29,17.9,28.5,20,28.5z M16.1,30.1  c-0.6,0.1-1,0.3-1.2,0.3c0-0.3,0.1-0.5,0.3-0.5c0,0,0,0,0-0.1c-0.5-0.3-0.8,0.3-0.8,0.3c-0.2,0-0.5,0-0.5,0.3c0,0.7-1.7,1.1-2.1,1.2  c0.7,0.3,1,1.1,1,1.1c0.5-0.5,1.1-1,1.2-1s0.2,0.2,0.2,0.3c0,0,0,0,0.1,0c0.3-0.4,0.1-0.5,0.1-0.6c0-0.1,0-0.4,0.4-0.4v4.9l-0.2,0  c-0.1,0-0.8-0.6-1.6-1.2s-1.3-0.2-2.2,0.3c-1.2,0.7-2.5,0.1-2.5,0.1c-1.1,0.8-1.4,3-1.4,3c-0.2,0.1-0.6,0.2-0.9,0.2  c-0.8,0-1-0.5-1-0.8c0-1.3,1.6-1.8,1.6-3c0-0.3-0.1-1.5-1.7-1.5c-0.2,0-1.3,0-1.3,0c-0.6,0-0.7-0.4-0.8-0.6c0-0.1-0.1,0-0.1,0  c0,0.1-0.1,0.3-0.1,0.6C2.7,33.7,3,34,3.5,34c0.3,0,0.5-0.1,0.6-0.1c0.1,0,0.1,0,0.1,0c-0.2,0.3-0.3,0.8-0.2,0.9c0,0,0,0,0.1,0  c0.1-0.5,0.6-1,1.3-1c0.8,0,0.8,0.7,0.8,0.9c0,1-1.8,1.8-1.8,3.1c0,1.4,1.5,1.7,2.3,1.5c-0.1,1.4-1.7,1.9-1.7,0.9c0,0,0-0.1-0.1,0  c-0.2,0.5-0.1,0.9,0.5,1.1c0,0,0,0,0,0.1c-0.6,0.4-0.3,2-0.3,2.4c0.1,0.7-0.6,0.6-0.7,0.6c0,0-0.1,0,0,0.1c0.5,0.6,1,0,1,0  c0.4,0.1,0.2,0.5-0.1,0.7c-0.1,0,0,0.1,0,0.1c0.1,0,0.7,0.1,0.8-0.5c0.3,0.3,0.7,0.2,0.8,0.2c0.1-0.1,0.8-0.3,0.8,0.4c0,0,0,0,0.1,0  c0.5-0.6,0-1-0.3-1c0,0,0.4-0.3,0.7,0.1c0,0,0,0,0.1,0c0-0.8-0.6-0.8-1-0.5c0-0.1-0.2-0.5,0.4-0.5c0,0,0,0,0,0  c-0.5-0.5-0.8,0-0.9,0.1c-0.2,0.3-0.7,0.2-0.8,0.1c0.2-2.6,2.5-1.7,2.8-3c0-0.1,0.1,0,0.1,0c0.1,0.3,0.9,0.4,1-0.3c0,0,0-0.1,0,0  C9.4,40.8,7.9,38.7,10,37c1.8-1.5,3.3-0.6,3.9-0.2c0,0.2-0.1,0.3-0.2,0.3c0,0,0,0,0,0c0.2,0.1,0.4,0,0.5-0.1  c0.4,0.3,0.1,0.6-0.1,0.7c0,0,0,0,0,0.1c0.4,0.1,0.6-0.3,0.6-0.5l0.1,0v1.5c0,2.1,2.4,2.4,5.2,4.2c2.7-1.8,5.1-2.1,5.1-4.2v-1.5  l0.1,0c0,0.2,0.3,0.6,0.6,0.5c0,0,0,0,0-0.1c-0.1-0.1-0.5-0.4-0.1-0.7c0.1,0.2,0.4,0.2,0.5,0.1c0,0,0,0,0,0c-0.1,0-0.2-0.1-0.2-0.3  c0.6-0.5,2.2-1.3,3.9,0.2c2.1,1.7,0.5,3.8-0.1,3.1c0,0,0,0,0,0c0.1,0.6,0.9,0.6,1,0.3c0,0,0,0,0,0c0.3,1.3,2.6,0.3,2.8,3  c0,0-0.6,0.1-0.8-0.1c-0.1-0.1-0.5-0.6-0.9-0.1c0,0,0,0,0,0c0.6,0,0.5,0.4,0.5,0.5c-0.4-0.3-1-0.3-1,0.5c0,0.1,0,0,0,0  c0.3-0.4,0.7-0.1,0.7-0.1c-0.3,0-0.8,0.4-0.3,1c0,0,0,0.1,0,0c0.1-0.7,0.7-0.5,0.8-0.4c0.1,0,0.5,0.2,0.8-0.2  c0.1,0.5,0.8,0.5,0.8,0.5c0,0,0,0,0-0.1c-0.3-0.2-0.6-0.6-0.1-0.7c0,0,0.6,0.5,1,0c0,0,0-0.1,0-0.1c0,0-0.7,0.1-0.7-0.6  c0-0.5,0.4-2-0.3-2.4c0,0-0.1,0,0-0.1c0.6-0.1,0.7-0.6,0.5-1.1c0-0.1-0.1,0-0.1,0c0,1-1.7,0.5-1.7-0.9c0.9,0.2,2.3-0.1,2.3-1.5  c0-1.4-1.8-2.1-1.8-3.1c0-0.2,0-0.9,0.8-0.9c0.7,0,1.2,0.5,1.3,1c0,0,0,0,0.1,0c0.1-0.1,0.1-0.7-0.2-0.9c0,0,0-0.1,0,0  c0.1,0,0.3,0.1,0.6,0.1c0.5,0,0.8-0.3,0.8-0.8c0-0.3-0.1-0.5-0.1-0.6c0,0,0-0.1-0.1,0c-0.1,0.2-0.2,0.6-0.8,0.6c0,0-1.2,0-1.3,0  c-1.5,0-1.7,1.2-1.7,1.5c0,1.2,1.6,1.8,1.6,3c0,0.3-0.2,0.8-1,0.8c-0.3,0-0.7-0.1-0.9-0.2c0,0-0.4-2.2-1.4-3c0,0-1.3,0.6-2.5-0.1  c-1-0.5-1.4-0.8-2.2-0.3s-1.5,1.2-1.6,1.2l-0.2,0v-5c0.4,0,0.4,0.3,0.4,0.4c0,0.1-0.1,0.2,0.1,0.6c0,0,0,0,0,0  c0-0.1,0.1-0.3,0.2-0.3c0.1,0,0.7,0.4,1.2,1c0,0,0.3-0.9,1-1.1c-0.4-0.1-2.1-0.5-2.1-1.2c0-0.3-0.3-0.3-0.5-0.3c0,0-0.3-0.7-0.8-0.3  c0,0,0,0.1,0,0.1c0.2,0,0.3,0.3,0.3,0.5c-0.5-0.1-2.6-0.7-5.1-0.7c-1.2,0-2.3,0.1-3.2,0.3v1.7h-0.7L16.1,30.1L16.1,30.1 M11.5,47.7  c-0.2-0.1-0.3-0.2-0.3-0.4v-1.1c-0.3-0.1-1.1-0.4-2.8-0.4c-1.4,0-1.8,0.3-1.8,0.4l-0.4,2c0,0,0.6-0.5,2.6-0.4  c2.4,0.2,4.9,1.6,4.9,0.1V47C11.8,47,11.5,47.6,11.5,47.7z M26.4,47v0.9c0,1.5,2.5,0.1,4.9-0.1c2-0.1,2.6,0.4,2.6,0.4l-0.4-2  c0-0.1-0.5-0.4-1.8-0.4c-1.7,0-2.5,0.3-2.8,0.4v1.1c0,0.2-0.1,0.4-0.3,0.4C28.5,47.6,28.3,47,26.4,47z M20,46.1  c3.9,0,7.8,0.2,8.4,0.8c0,0,0.1,0,0.1,0v-2.1c0-0.6-4.1-1-8.4-1s-8.4,0.3-8.4,1v2.1c0,0,0,0.1,0.1,0C12.2,46.3,16.1,46.1,20,46.1z   M16.6,36.4l-0.4-0.1l0,0l-0.5-0.2c0,0,0.3,0,0.4,0c0,0,0,0,0,0c-0.2-0.2-0.4-0.3-0.4-0.3s0.2,0.1,0.5,0.2c0,0,0,0,0,0  c-0.1-0.2-0.3-0.4-0.3-0.4s0.4,0.3,0.4,0.3c0,0,0,0,0,0c-0.1-0.2-0.2-0.5-0.2-0.5l0.4,0.4c0,0,0,0,0,0c0-0.2-0.1-0.5-0.1-0.5  l0.3,0.4c0,0,0,0,0,0c0-0.1,0-0.5,0-0.5s0.1,0.3,0.2,0.4c0,0,0,0,0,0c0,0,0.1-0.4,0.1-0.4l0,0.5l-0.1,0l-0.1,0.6  C17.7,36,18.5,35,19,35c0.7,0,0.9,0.8,2.1,0.4c0.3,0.5,0.4,0.9,0.5,1.4c0.5,0.5,1.1,0.3,1.1-0.2c0-0.6-0.7-0.8-0.7-1.4  c0-0.3,0.2-0.7,0.8-0.7c0.3,0,0.7,0.1,1,0.1c0.3,0,0.4-0.2,0.4-0.3c0-0.1,0.1,0,0.1,0c0,0.1,0,0.2,0,0.3c0,0.4-0.6,0.5-0.7,0.4  c0,0,0,0,0,0c0.1,0.1,0.1,0.3,0,0.5c0,0,0,0,0,0c-0.1-0.3-0.4-0.7-0.7-0.7c-0.1,0-0.3,0.1-0.3,0.3c0,0.4,0.8,0.7,0.8,1.5  c0,0.8-0.8,1-1.6,0.8c0,0.8,1.2,1.2,1.2,0.7c0,0,0,0,0,0c0.2,0.2,0.1,0.4-0.1,0.5c0.2,0.1,0.2,0.5,0.3,0.7c0.1,0.4,0.5,0.2,0.5,0.2  s0,0,0,0c-0.1,0.4-0.5,0.2-0.5,0.2c-0.2,0.1,0,0.3,0.2,0.3c0,0,0,0,0,0c-0.1,0-0.4,0.1-0.6-0.1c-0.1,0.3-0.3,0.3-0.4,0.3  c-0.1,0-0.3,0.2-0.2,0.4c0,0,0,0,0,0c-0.4-0.2-0.1-0.5,0-0.6c0,0-0.3-0.1-0.4,0.2c0,0,0,0,0,0c-0.1-0.4,0.2-0.5,0.4-0.4  c0-0.1-0.1-0.3-0.5-0.2c0,0,0,0,0,0c0-0.1,0.2-0.3,0.5-0.1c0.1,0.1,0.4,0,0.4,0c-0.5-1-1.5-0.2-1.8-1c0,0,0,0,0,0  c0,0.2-0.5,0.2-0.6-0.2c0,0,0,0,0,0c0.1,0.1,0.2,0.1,0.4-0.1c0.1-0.2,0.1-0.4,0.1-0.6c0-0.6-0.6-1.7-1.6-1.7c-0.6,0-1.3,0.2-1.8,0.6  l0.5,0.1c0,0.5-0.5,0.7-0.9,0.6l0.1-0.5c-0.1,0-0.3,0.1-0.4,0.2c0,0,0,0,0,0c-0.1-0.3,0.2-0.5,0.2-0.5c0,0,0,0,0,0  c-0.2,0-0.4,0.2-0.4,0.2c0,0,0,0,0,0C16.5,36.6,16.5,36.5,16.6,36.4z M17.9,40c-0.2,0.2-0.3,0-0.6,0c-0.2,0-0.3,0.2-0.3,0.3  c0,0,0,0,0,0c-0.3-0.3,0-0.5,0.2-0.5c0,0-0.3-0.2-0.4,0c0,0,0,0,0,0c0-0.4,0.3-0.5,0.5-0.3c0-0.2-0.1-0.3-0.2-0.3c0,0,0,0,0,0  c0.1-0.1,0.1-0.1,0.2-0.1c0.2,0,0.3,0.3,0.4,0.3c0.2,0,0.5-0.3,0.6-0.3c0,0-0.2-0.6-0.2-1c0,0,0,0,0,0c-0.1,0.1-0.4,0.1-0.4-0.3  c0,0,0,0,0,0c0.1,0.2,0.3,0,0.4-0.1c0.1-0.1,0.7-1,1.4-1c0.2,0,0.4,0.1,0.6,0.2c-0.3,0.3,0,0.6,0.2,0.6c0,0,0,0,0,0  c-1,0.4-1.5,0.5-1.5,1.4c0,0.4,0.1,0.7,0.4,0.6c0,0,0,0,0,0c-0.1,0.1-0.2,0.2-0.3,0.2c-0.2,0-0.3-0.1-0.4-0.1  c-0.1,0-0.5,0.2-0.5,0.4c0,0.1,0,0.2,0.2,0.3c0,0,0,0,0,0C18.3,40.2,18,40.2,17.9,40z M20.6,31.8c-0.3,0-0.5,0-0.5,0.1  C20.2,32.1,20.4,32,20.6,31.8z M19.4,32.5c0.2-0.1,0.5,0,0.5,0c0,0,0,0.1,0,0.1c-0.5,0.1-0.5,0.3-0.8,0.3c-0.2,0-0.4-0.2-0.3-0.5  c0,0,0,0,0,0C18.9,32.5,19,32.6,19.4,32.5z M13.4,42.8c0.3,0.4,0.6,0,1,0c0.2,0,0.4,0.1,0.5,0.5c0,0,0,0,0,0c0.4-0.6-0.1-0.9-0.4-1  c0.1-0.1,0.5-0.3,0.8,0.1c0,0,0,0,0,0c0-0.8-0.6-0.8-1-0.5c-0.1-0.3,0.1-0.5,0.4-0.5c0,0,0.1,0,0,0c-0.5-0.5-0.9,0.1-1,0.3  c-0.2,0.3-0.9-0.2-1.2-0.5c0,0,0.6-0.7,0.6-1.3c0,0,0-0.1,0-0.1s0,0,0,0c0.1,0,0.1,0.1,0.2,0.1c0.1,0,0.4,0,0.4-0.6c0,0,0,0,0,0  c-0.1,0.1-0.2,0.1-0.2,0.1c-0.5,0-1.6-1.7-2.9-1.7c-0.3,0-1,0.2-1.3,0.6c0.1,0.1,0.2,0.3,0.2,0.4c0,0.2-0.2,0.3-0.4,0.4c0,0,0,0,0,0  c0.6,0.3,1.8,0.7,2.1,0.9c0.3,0.3,0.3,0.8,0.1,1.5c-0.2,0.7-0.6,0.6-0.7,0.6c0,0,0,0,0,0c0.2,0.2,0.4,0.3,0.5,0.3  c0.3,0,0.5-0.2,0.6-0.2c0.3,0,0.9,0.4,0.9,0.7c0,0.2-0.1,0.3-0.3,0.5c0,0,0,0,0,0C12.7,43.3,13.3,43.3,13.4,42.8z M27.5,43.3  C27.5,43.3,27.5,43.3,27.5,43.3c-0.2-0.1-0.3-0.3-0.3-0.5c0-0.3,0.6-0.7,0.9-0.7c0.2,0,0.3,0.2,0.6,0.2c0.2,0,0.4-0.1,0.5-0.3  c0,0,0,0,0,0c-0.1,0-0.5,0.1-0.7-0.6c-0.2-0.7-0.2-1.2,0.1-1.5c0.3-0.2,1.4-0.7,2.1-0.9c0,0,0,0,0,0c-0.2,0-0.4-0.2-0.4-0.4  c0-0.1,0-0.3,0.2-0.4c-0.3-0.3-1-0.6-1.3-0.6c-1.3,0-2.4,1.7-2.9,1.7c-0.1,0-0.1,0-0.2-0.1c0,0,0,0,0,0c0,0.5,0.3,0.6,0.4,0.6  c0.1,0,0.2,0,0.2-0.1c0,0,0,0,0,0s0,0.1,0,0.1c0,0.6,0.6,1.3,0.6,1.3c-0.3,0.3-1,0.8-1.2,0.5c-0.1-0.1-0.5-0.8-1-0.3c0,0,0,0,0,0  c0.3,0,0.5,0.2,0.4,0.5c-0.4-0.3-1-0.3-1,0.5c0,0,0,0,0,0c0.3-0.4,0.7-0.1,0.8-0.1c-0.3,0-0.8,0.4-0.4,1c0,0,0,0,0,0  c0-0.4,0.3-0.5,0.5-0.5c0.4,0,0.7,0.4,1,0C26.8,43.3,27.4,43.3,27.5,43.3z M17.2,33.3c0,0.1-0.2,0-0.2,0c0,0,0,0,0,0  c0,0.1,0.2,0.3,0.4,0.3c0.1,0,0.2,0,0.3-0.1c0,0,0.8,0.2,1.1,0.3c-0.1,0.2-0.2,0.4-0.3,0.7c-0.3-0.2-1.5-0.8-1.5-0.8l-0.4,0.5  c-0.1,0.1-0.4-0.1-0.3-0.2l0.3-0.4c-0.1-0.1-0.3,0-0.4,0c0,0,0,0,0,0c0-0.1,0.2-0.3,0.5-0.2c0-0.2-0.3-0.2-0.4-0.1c0,0,0,0,0,0  c0.1-0.1,0.4-0.3,0.6-0.1l0.1-0.2l-0.3-0.3l0.2-0.2l0.2,0.2l1.4-1.9c0,0,0.3-0.1,0.4-0.1c0,0.1,0,0.4,0,0.4l-1.4,1.9l0.3,0.1  l-0.2,0.2L17.3,33L17.2,33.3z M22,33c0,0.2,0.1,0.4,0.3,0.4c0,0,0,0,0,0c0,0.2-0.4,0.4-0.5,0.1c-0.1,0.3-0.1,0.6,0.2,0.7  c0,0,0,0,0,0c-0.2,0.1-0.5,0.1-0.6-0.2c-0.3,0.2-0.2,0.6-0.1,0.7c0,0-0.7,0.4-1.3,0.1c-0.4-0.2-0.8-0.5-1.3-0.4c0.1-0.8,0.5-1,1.1-1  c0.5-0.1,0.6-0.3,0.5-0.5c-0.2,0-0.5,0.1-0.5,0.1c-0.1-0.1,0-0.2,0-0.2c0,0,0-0.2,0-0.2c0.4,0,0.5-0.1,0.5-0.1  c0.1-0.4-0.3-0.4-0.6-0.2c-0.1-0.1-0.1-0.3-0.1-0.3c0,0-0.1-0.1-0.1-0.1c0-0.1,0.5-0.4,0.6-0.4c0-0.1,0.2-0.3,0.7-0.3  c0.1-0.1,0-0.6-0.1-0.7c0,0,0-0.1,0,0c0.2,0.1,0.3,0.5,0.5,0.5c0,0,0.5-0.3,0.6-0.3c0,0,0.1,0.6,0.1,0.6c0.1,0.1,0.5,0,0.7,0.1  c0,0,0,0,0,0.1c-0.1,0-0.6,0.2-0.6,0.3C22.1,32.3,22,32.8,22,33z"/>
</svg>
