<?xml version="1.0" encoding="UTF-8"?>
<svg width="64px" height="64px" viewBox="0 0 64 64" version="1.1" xmlns="http://www.w3.org/2000/svg" xmlns:xlink="http://www.w3.org/1999/xlink">
    <!-- Generator: Sketch 64 (93537) - https://sketch.com -->
    <title>01. Ontwerpprincipes/03. Icons/01. 64px/14. Mensen</title>
    <desc>Created with Sketch.</desc>
    <g id="01.-Ontwerpprincipes/03.-Icons/01.-64px/14.-Mensen" stroke="none" stroke-width="1" fill="none" fill-rule="evenodd">
        <g id="Icon" transform="translate(9.000000, 7.000000)" fill="#154273">
            <path d="M18.2121618,10.9956897 C21.6703743,10.0976724 25.7241267,10.1694828 28.7877521,10.9956897 C34.1449422,12.4403448 33.5156519,22.2674138 33.1796974,27.7356034 C33.0269596,30.2224138 31.2925153,30.9271552 30.1506835,30.9271552 L30.1506835,30.9271552 L30.1506835,24.1976724 C30.1506835,21.2284483 29.9708248,18.3998276 29.4528592,16.6348276 C29.3595289,16.3169828 29.2039498,16.285 29.0963273,16.3793103 L29.0963273,16.3793103 L29.0963273,50 C26.7203668,50 24.7924602,48.6921552 24.5871165,46.0331034 C24.5871165,46.0331034 23.9606674,30.6444828 23.9539517,30.4701724 C23.9472361,30.2958621 23.7824445,30.0693966 23.499957,30.0693966 C23.2174694,30.0693966 23.0534527,30.2958621 23.046737,30.4701724 C23.0400214,30.6444828 22.4127974,46.0331034 22.4127974,46.0331034 C22.2082286,48.6813793 20.2977138,50 17.9035866,50 L17.9035866,50 L17.9035866,16.3793103 C17.836344,16.2985345 17.6600153,16.3337931 17.5470547,16.6348276 C16.8946901,18.3728448 16.8500914,21.2015517 16.8500914,24.1976724 L16.8500914,30.9271552 C15.7073986,30.9271552 13.9732126,30.2225 13.8202165,27.7356034 C13.4838316,22.2674138 12.8424875,12.39 18.2121618,10.9956897 Z M4.34315068,10.9092241 C6.96199372,10.1637931 11.4462362,10.1637931 14.1670192,10.9092241 C14.4959136,10.9993103 14.8009588,11.127931 15.0898177,11.2818103 C11.6967813,14.7459483 12.2372185,22.9646552 12.540714,27.8281897 C12.6177717,29.0631897 13.0173526,30.0035345 13.5986863,30.7043966 L13.5986863,30.7043966 L13.5986863,46.5517241 C11.2972866,46.5517241 9.99582915,45.2630172 9.8596221,42.9262931 C9.8596221,42.9262931 9.28801744,28.8009483 9.2812157,28.6410345 C9.27441396,28.4811207 9.14586963,28.2723276 8.87173358,28.2723276 C8.59759753,28.2723276 8.452178,28.4811207 8.44623724,28.6410345 C8.44029648,28.8009483 7.86275105,42.9022414 7.86275105,42.9022414 C7.67617668,45.322931 6.18366775,46.5517241 4.15399336,46.5517241 L4.15399336,46.5517241 L4.15399336,15.9347414 C4.03371445,15.8269828 3.88562588,15.9653448 3.80503814,16.2311207 C3.30282848,17.887931 3.1808276,19.6996552 3.1808276,21.5517241 L3.1808276,21.5517241 L3.1808276,29.1006897 C2.12982925,29.1006897 0.486390512,28.4449138 0.250137584,26.1651724 C-0.213069686,21.6956897 -0.566415902,12.3067241 4.34315068,10.9092241 Z M42.6568493,10.9092241 C47.5664159,12.3067241 47.2130697,21.6956897 46.7498624,26.1651724 C46.5136095,28.4449138 44.8701708,29.1006897 43.8191724,29.1006897 L43.8191724,21.5517241 L43.8191724,21.5517241 C43.8191724,19.6996552 43.6971715,17.887931 43.1949619,16.2311207 C43.1143741,15.9653448 42.9662856,15.8269828 42.8460066,15.9347414 L42.8460066,46.5517241 C40.8163323,46.5517241 39.3238233,45.322931 39.1372489,42.9022414 C39.1372489,42.9022414 38.5597035,28.8009483 38.5537628,28.6410345 C38.547822,28.4811207 38.4024025,28.2723276 38.1282664,28.2723276 C37.8541304,28.2723276 37.725586,28.4811207 37.7187843,28.6410345 C37.7119826,28.8009483 37.1403779,42.9262931 37.1403779,42.9262931 C37.0040848,45.2630172 35.7026273,46.5517241 33.4012276,46.5517241 L33.4012276,30.7043966 C33.9825613,30.0035345 34.3821422,29.0631897 34.4591999,27.8281897 C34.7627815,22.9646552 35.3032187,14.7459483 31.9100962,11.2818103 C32.1989551,11.127931 32.5040003,10.9993103 32.8328947,10.9092241 C35.5537638,10.1637931 40.0380063,10.1637931 42.6568493,10.9092241 Z M23.499957,0 C25.890382,0 27.3743672,1.52922414 27.3743672,4.37982759 C27.3743672,6.88267241 25.9542667,8.62068966 23.499957,8.62068966 C21.0465082,8.62068966 19.6255467,7.09146552 19.6255467,4.37982759 C19.6255467,1.8075 20.9817625,0 23.499957,0 Z M9.29378601,0.862068966 C11.4185126,0.862068966 12.7377062,2.23810345 12.7377062,4.80413793 C12.7377062,7.05646552 11.4756817,8.62068966 9.29378601,8.62068966 C7.11275133,8.62068966 5.84986578,7.24422414 5.84986578,4.80413793 C5.84986578,2.48853448 7.05558225,0.862068966 9.29378601,0.862068966 Z M37.7061279,0.862068966 C39.9443317,0.862068966 41.1500481,2.48853448 41.1500481,4.80413793 C41.1500481,7.24422414 39.8871626,8.62068966 37.7061279,8.62068966 C35.5242322,8.62068966 34.2622077,7.05646552 34.2622077,4.80413793 C34.2622077,2.23810345 35.5814013,0.862068966 37.7061279,0.862068966 Z" id="Combined-Shape"></path>
        </g>
    </g>
</svg>