<svg xmlns="http://www.w3.org/2000/svg" width="20" height="20" viewBox="0 0 20 20"><path d="M10,0A10,10,0,1,0,20,10,10,10,0,0,0,10,0ZM4.585,3.126l-.36.807A1.059,1.059,0,0,0,6.074,4.953l.306-.46a1.011,1.011,0,0,1,1.293-.344,1.011,1.011,0,0,0,.905,0L8.9,3.986a1.25,1.25,0,0,1,.969-.062l1.23.425a1.388,1.388,0,0,0,.3.067c.98.116,1.069.471.868,1a1.048,1.048,0,0,1-1.294.609l-.012,0a9.873,9.873,0,0,0-3.468-.4A3.281,3.281,0,0,0,4.375,8.75c0,2.45,1.033,2.708,2.12,2.977a3.132,3.132,0,0,1,1.63.773,2.948,2.948,0,0,1,.424,2.346c-.1,1.354-.206,2.654,2.076,2.654,2.188,0,3.75-4.375,3.75-5.625,0-.328.26-.585.555-.875a1.935,1.935,0,0,0,.695-2.25,2.322,2.322,0,0,0-.8-.945.464.464,0,0,1-.065-.689.416.416,0,0,1,.525-.053l1.356.905a.346.346,0,0,0,.435-.044.378.378,0,0,1,.611.146,3.987,3.987,0,0,0,1.061,1.7l0,.233A8.75,8.75,0,1,1,4.585,3.126Z" fill="#154273"/></svg>