<?xml version="1.0" encoding="UTF-8"?>
<svg width="24px" height="24px" viewBox="0 0 24 24" version="1.1" xmlns="http://www.w3.org/2000/svg" xmlns:xlink="http://www.w3.org/1999/xlink">
    <!-- Generator: Sketch 64 (93537) - https://sketch.com -->
    <title>01. Ontwerpprincipes/03. Icons/02. 24px/03. Meldingen/03. Alert</title>
    <desc>Created with Sketch.</desc>
    <g id="01.-Ontwerpprincipes/03.-Icons/02.-24px/03.-Meldingen/03.-Alert" stroke="none" stroke-width="1" fill="none" fill-rule="evenodd">
        <g id="Icon" transform="translate(4.000000, 5.000000)" fill="#D52B1E">
            <path d="M15.853435,12.0909091 L9.16347186,0.636363636 C8.65445292,-0.212121212 7.34554708,-0.212121212 6.83652814,0.636363636 L0.146564979,12.0909091 C-0.289736967,12.9393939 0.291998961,14 1.31003683,14 L14.6899632,14 C15.708001,14 16.289737,12.9393939 15.853435,12.0909091 Z M7.2001131,4.17171717 L9.01803787,3.95959596 L8.7998869,7.28282828 L8.7998869,9.05050505 L7.12739611,9.05050505 L7.12739611,4.17171717 L7.2001131,4.17171717 Z M8,12.4444444 C7.2001131,12.4444444 6.76381115,12.020202 6.76381115,11.1717172 C6.76381115,10.4646465 7.2001131,9.82828283 8,9.82828283 C8.7998869,9.82828283 9.23618885,10.3232323 9.23618885,11.1717172 C9.23618885,11.8787879 8.7998869,12.4444444 8,12.4444444 Z" id="Shape"></path>
        </g>
    </g>
</svg>
