<svg aria-hidden="true" focusable="false" role="img" xmlns="http://www.w3.org/2000/svg" width="64" height="64"><path fill="none" d="M0 0h64v64H0z"/><path d="M60 30c-.573 0-1.897.243-3.039.63a24.896 24.896 0 0 0-6.343-15.31c1.082-.534 2.19-1.3 2.595-1.705a2 2 0 1 0-2.828-2.828c-.406.406-1.17 1.514-1.705 2.595a24.895 24.895 0 0 0-15.309-6.343C33.757 5.897 34 4.573 34 4a2 2 0 1 0-4 0c0 .573.243 1.897.63 3.039a24.896 24.896 0 0 0-15.31 6.343c-.534-1.081-1.3-2.19-1.705-2.595a2 2 0 1 0-2.828 2.828c.405.406 1.514 1.17 2.595 1.705A24.896 24.896 0 0 0 7.04 30.63C5.897 30.242 4.573 30 4 30a2 2 0 1 0 0 4c.573 0 1.897-.243 3.039-.63a24.897 24.897 0 0 0 6.343 15.31c-1.081.534-2.19 1.3-2.595 1.705a2 2 0 1 0 2.828 2.828c.406-.405 1.17-1.514 1.705-2.595a24.895 24.895 0 0 0 15.31 6.343C30.242 58.103 30 59.427 30 60a2 2 0 1 0 4 0c0-.573-.243-1.897-.63-3.039a24.896 24.896 0 0 0 15.31-6.343c.534 1.082 1.3 2.19 1.705 2.595a2 2 0 1 0 2.828-2.828c-.405-.406-1.513-1.17-2.595-1.705a24.896 24.896 0 0 0 6.343-15.309c1.142.386 2.466.629 3.039.629a2 2 0 1 0 0-4zm-9.983 4a18.1 18.1 0 0 1-3.863 9.326l-7.28-7.28c-.97.813-1.715 1.226-1.975 1.355-.223.111-.368.077-.433-.016a6.988 6.988 0 0 0 1.69-8.713l7.998-7.998A18.1 18.1 0 0 1 50.016 30h-8.758c-.05 1.768-.417 3.074-.851 4h9.61zm-36.169 0h11.447c.139.464.321.91.548 1.328l-8.074 8.075A18.106 18.106 0 0 1 13.849 34zm3.92-13.403l8.075 8.075c-.227.418-.41.864-.548 1.328H13.848a18.106 18.106 0 0 1 3.92-9.403zm17.56 5.246A6.957 6.957 0 0 0 34 25.295V13.926c3.51.4 6.719 1.8 9.335 3.91l-8.007 8.007zM36.15 32a4.15 4.15 0 1 1-8.3 0 4.15 4.15 0 0 1 8.3 0zM30 25.295c-.464.138-.91.321-1.328.548l-8.065-8.065A18.1 18.1 0 0 1 30 13.906v11.389zm-1.328 12.862c.418.227.864.41 1.328.548v11.39a18.1 18.1 0 0 1-9.393-3.873l8.065-8.065zm5.328.548c.464-.139.91-.321 1.328-.548l8.007 8.007A18.106 18.106 0 0 1 34 50.074V38.705z"/></svg>
