<svg aria-hidden="true" focusable="false" role="img" xmlns="http://www.w3.org/2000/svg" width="64" height="64"><path fill="none" d="M0 0h64v64H0z"/><path d="M53.856 14.117a4.787 4.787 0 0 0-3.973-3.973C43.922 9.15 33.987 9.15 32 9.15c-1.987 0-11.922 0-17.883.994a4.787 4.787 0 0 0-3.973 3.973C9.15 20.078 9.15 30.013 9.15 32s0 11.922.994 17.883a4.787 4.787 0 0 0 3.973 3.973c5.961.994 15.896.994 17.883.994 1.987 0 11.922 0 17.883-.994a4.787 4.787 0 0 0 3.973-3.973c.994-5.961.994-15.896.994-17.883 0-5.964 0-11.922-.994-17.883zM35 48h-6.564L29 34v-8h6v22zm-2.977-26c-2.242 0-3.523-1.253-3.523-3.543 0-1.945 1.19-3.457 3.477-3.457 2.242 0 3.523 1.21 3.523 3.457 0 1.987-1.19 3.543-3.477 3.543z"/></svg>
