<svg aria-hidden="true" focusable="false" role="img" width="16" height="17" xmlns="http://www.w3.org/2000/svg"><g fill="none"><path d="M0 0h17v17H0z"/><g fill="#000"><path d="M6.075 14.08l-.922.521v-1.918H4.068v1.919l-.927-.522a.38.38 0 0 0-.472.08.37.37 0 0 0-.012.475l1.656 2.088a.374.374 0 0 0 .587 0l1.657-2.088a.371.371 0 0 0-.01-.474.379.379 0 0 0-.472-.08zM15.722 10.507l-2.1-1.65a.374.374 0 1 0-.557.48l.524.917h-1.928v1.08h1.929l-.524.922a.376.376 0 0 0 .557.482l2.099-1.648a.37.37 0 0 0 0-.583zM9.15.403c.206-.077.248-.131.248-.208 0-.076-.125-.153-.332-.168 0 0-.315.092-.298.336.016.245.174.116.381.04zM6.11 6.244l.7.308c.113.05.242.052.354 0 .318-.145.762-.403.933-.716a.386.386 0 0 0 .04-.199 2.4 2.4 0 0 0-.014-.19.431.431 0 0 0-.4-.38 5.339 5.339 0 0 0-.416-.01.443.443 0 0 0-.307.128l-.89.885v.174zM4.771 3.047c.075.008.299-.231.357-.29.058-.057.053-.413 0-.486-.053-.073-.095-.176-.205-.133-.11.042-.4.691-.384.771.017.08.158.13.232.138zM7.92.638c.158-.05.433-.034.425-.304 0 0-.008-.197-.506-.049-.497.149-.564.139-.564.34 0 .2.488.063.645.013zM6.257.991s.334-.209.6-.205c.265.004.15-.21.15-.21s-.182-.184-.723.153c-.541.338-.399.377-.39.4.01.023.163.024.363-.138zM5.503 1.696c.075-.14.29-.18.197-.3 0 0-.2-.049-.381.157-.183.207-.299.306-.224.413.074.107.334-.13.408-.27zM2.327 9.638l.378.354c.086.08.215.094.317.035l.11-.063c.092-.054.118-.134.042-.21l-.845-.558a.103.103 0 0 0-.06-.019c-.135.005-.587 0-.587.297l.418.056.227.108zM1.97 10.193l.124.078c.154.096.35.1.506.008l.003-.002-.413-.333a.531.531 0 0 0-.275-.114l-.43-.047a.185.185 0 0 0-.166.067c-.063.08-.12.164-.168.248l.574.02a.496.496 0 0 1 .245.075z"/><path d="M11.755 7.878l-.008-.007a.318.318 0 0 1-.01-.461l.896-.891a.306.306 0 0 0 .09-.217v-.524a.307.307 0 0 0-.308-.306h-.673a.308.308 0 0 1-.292-.21l-.096-.286a.306.306 0 0 1 .122-.351l1.012-.672a.525.525 0 0 0 .235-.437V1.892a.946.946 0 0 0-.4-.77l-.94-.67a.84.84 0 0 0-.744-.115L7.185 1.446a.307.307 0 0 0-.21.248l-.228 1.611a.306.306 0 0 0 .208.334l.267.088c.126.042.21.16.21.291v.483c0 .107.086.195.194.2.288.013.555.057.664.166.183.182.198.783.2.933a55.5 55.5 0 0 1-.012.065c-.213.59-1.11 1.083-1.41 1.234a.203.203 0 0 1-.19-.004l-.984-.554a.242.242 0 0 1-.145-.22V5.202a.32.32 0 0 1 .193-.293l.006-.003a.319.319 0 0 0 .17-.409l-.292-.745a.308.308 0 0 0-.287-.195c-.412 0-.45.033-.69-.098a.308.308 0 0 0-.437.16c-.066.174-.105 1.777-.42 2.654-.425 1.185-1.317 1.934-1.317 1.934a.784.784 0 0 0-.043.169l-.037.256a.265.265 0 0 0 .077.23l.766.755a.4.4 0 0 1-.082.63l-.574.334a.094.094 0 0 0-.008.158l.53.39c.045.034.013.136.013.136l-1.087-.6a1.378 1.378 0 0 0-.715-.188s-1.266.098-.933.429c.168.152.505.54.617.502a.711.711 0 0 0 .173-.106l.73.412c.056.022.057-.076.11-.173a.22.22 0 0 1 .277-.095s.807.35.942.388c.104.029.196.01.276-.084.07-.083.253-.378.253-.378a.309.309 0 0 1 .296-.134l1.657.215a.308.308 0 0 1 .224.147c.117.24.157.297.29.37.058.031 1.853.79 1.853.79.145.061.22.222.172.372l-.27.86.001.184.13.411c.041.128.16.215.295.215l.922-.002c.17 0 .307-.138.307-.307-.06-.1-.31-.575-.369-.604l-.14-.07a.306.306 0 0 1-.17-.274v-.162c0-.082.032-.16.09-.217l.538-.466.074-.12.413-1.231a.305.305 0 0 0-.03-.257l-1.017-1.65a.305.305 0 0 1-.02-.284l.056-.125a.308.308 0 0 1 .325-.18l1.3.185a.309.309 0 0 0 .261-.086l.617-.614a.318.318 0 0 0-.01-.46z"/><path d="M2.874 11.9l-.37-.161a.079.079 0 0 0-.083.012l-.304.262a.079.079 0 0 1-.095.006l-.525-.343a.14.14 0 0 0-.146-.005l-.129.074a.14.14 0 0 1-.151-.009l-.467-.342a.088.088 0 0 0-.126.024l-.358.573a.078.078 0 0 0 .005.089l.199.218c.024.032.06.052.1.054 0 0 .4.104.453.033.052-.07.064-.269.064-.269l.302.013a.079.079 0 0 1 .046.009l.845.45a.079.079 0 0 0 .087-.009l.672-.547a.078.078 0 0 0-.019-.133z"/></g></g></svg>
