<?xml version="1.0" encoding="UTF-8"?>
<svg width="60px" height="60px" viewBox="0 0 60 60" version="1.1" xmlns="http://www.w3.org/2000/svg" xmlns:xlink="http://www.w3.org/1999/xlink">
    <title>k-loader</title>
    <g id="Page-1" stroke="none" stroke-width="1" fill="none" fill-rule="evenodd">
        <g id="Loader"  fill-rule="nonzero">
            <g id="k-loader" >
            <animateTransform 
                attributeName="transform" 
                attributeType="XML"
                type="rotate"
                from="0 30 30"
                to="360 30 30" 
                dur="1s"
                begin="0s"
                repeatCount="indefinite"
                restart="always" 
                />
                <path d="M30,0 C46.5685425,0 60,13.4314575 60,30 C60,46.5685425 46.5685425,60 30,60 C13.4314575,60 0,46.5685425 0,30 C0,13.4314575 13.4314575,0 30,0 Z M30,2 C14.536027,2 2,14.536027 2,30 C2,45.463973 14.536027,58 30,58 C45.463973,58 58,45.463973 58,30 C58,14.536027 45.463973,2 30,2 Z" id="Combined-Shape" fill="#E7ECF1"></path>
                <path d="M30,0 C46.5685425,0 60,13.4314575 60,30 L58,30 L58,30 C58,14.536027 45.463973,2 30,2 L30,0 L30,0 Z" id="Combined-Shape" fill="#154273"></path>
            </g>
        </g>
    </g>
</svg>