<?xml version="1.0" encoding="UTF-8"?>
<svg width="24px" height="24px" viewBox="0 0 24 24" version="1.1" xmlns="http://www.w3.org/2000/svg" xmlns:xlink="http://www.w3.org/1999/xlink">
    <title>01. Ontwerpprincipes/03. Icons/02. 24px/08. Social/04. Whatsapp</title>
    <g id="01.-Ontwerpprincipes/03.-Icons/02.-24px/08.-Social/04.-Whatsapp" stroke="none" stroke-width="1" fill="none" fill-rule="evenodd">
        <g id="whatsapp" transform="translate(2.000000, 2.000000)" fill="#154273">
            <path d="M17.012085,2.90649413 C15.1409912,1.03320312 12.6525879,0.00109863125 10.0015869,0 C4.53894044,0 0.0931396563,4.44567872 0.090942375,9.90979003 C0.0902099688,11.6564941 0.546508781,13.3615722 1.41381838,14.8645019 L0.0078125,20 L5.26159669,18.6218262 C6.7092285,19.411499 8.33898925,19.8276367 9.99755859,19.828125 L10.001709,19.828125 C15.4637451,19.828125 19.9100342,15.3820801 19.9121103,9.91772462 C19.913208,7.26953125 18.8833008,4.77966309 17.012085,2.90649413 Z M10.0015869,18.1544189 L9.99816894,18.1544189 C8.52014159,18.1538086 7.07055663,17.7565918 5.80566406,17.0062256 L5.50500488,16.8276367 L2.38732909,17.6455078 L3.21948244,14.605835 L3.02355956,14.2941894 C2.19897463,12.982666 1.76354981,11.4667969 1.7642813,9.91040038 C1.76599122,5.36877441 5.46130372,1.67382813 10.0048828,1.67382813 C12.2050781,1.67456056 14.2733154,2.53247069 15.8284912,4.08947753 C17.383667,5.64648438 18.239624,7.71606444 18.2388921,9.91711425 C18.2369385,14.4591064 14.5418701,18.1544189 10.0015869,18.1544189 L10.0015869,18.1544189 Z M14.5198975,11.9851074 C14.2723389,11.861084 13.0548096,11.262207 12.8277588,11.1794434 C12.6009522,11.0968018 12.4356689,11.0556641 12.2707519,11.3034668 C12.1055908,11.5512695 11.6311035,12.1091309 11.4865722,12.274292 C11.342041,12.4395752 11.1977539,12.4603272 10.9500732,12.3363037 C10.7023926,12.2124023 9.904541,11.9508057 8.95861816,11.1071778 C8.22253419,10.4505615 7.72558594,9.63964844 7.58105469,9.39184569 C7.43676756,9.14379881 7.579834,9.02270506 7.68969725,8.88647463 C7.95776369,8.55358888 8.22619628,8.20458984 8.30871581,8.03942872 C8.39135744,7.8741455 8.34997559,7.72949219 8.28796387,7.60559081 C8.22619628,7.48168944 7.73095703,6.26281738 7.52465819,5.76684569 C7.32348631,5.28417969 7.11950684,5.34936525 6.96740722,5.34179688 C6.82312012,5.33459472 6.657959,5.33312988 6.49279784,5.33312988 C6.32775878,5.33312988 6.05944825,5.39501953 5.83239747,5.64306641 C5.60546875,5.89099122 4.96582031,6.48999025 4.96582031,7.70886231 C4.96582031,8.92773438 5.85314941,10.1052246 5.97692872,10.2705078 C6.100708,10.435791 7.72314453,12.9370117 10.2071533,14.0095215 C10.7979736,14.2648926 11.2591553,14.4171143 11.6188965,14.53125 C12.2121582,14.7197266 12.7518311,14.6931153 13.1785889,14.6293945 C13.6544189,14.5582275 14.6435547,14.0302734 14.8500977,13.4519043 C15.0563965,12.8734131 15.0563965,12.3776856 14.9943847,12.274292 C14.9326172,12.1710205 14.7674561,12.1091309 14.5198975,11.9851074 L14.5198975,11.9851074 Z" id="Shape"></path>
        </g>
    </g>
</svg>