<?xml version="1.0" encoding="UTF-8"?>
<svg width="64px" height="64px" viewBox="0 0 64 64" version="1.1" xmlns="http://www.w3.org/2000/svg" xmlns:xlink="http://www.w3.org/1999/xlink">
    <!-- Generator: Sketch 64 (93537) - https://sketch.com -->
    <title>01. Ontwerpprincipes/03. Icons/01. 64px/17. Gezin</title>
    <desc>Created with Sketch.</desc>
    <g id="01.-Ontwerpprincipes/03.-Icons/01.-64px/17.-Gezin" stroke="none" stroke-width="1" fill="none" fill-rule="evenodd">
        <g id="Icon" transform="translate(14.000000, 7.000000)" fill="#154273">
            <path d="M9.2013219,10.3780397 L9.56796167,10.3813464 C12.9399191,10.4430757 15.0219592,11.369213 16.3082961,13.1708211 C14.9864239,13.8039637 14.2819857,15.2183864 14.2819857,17.0369531 C14.2819857,19.6579046 15.6477202,21.102812 18.0059595,21.102812 C20.3649992,21.102812 21.7299333,19.4560752 21.7299333,17.0369531 C21.7299333,15.1173909 21.0255751,13.8340441 19.8285664,13.2223297 C20.470893,12.5291881 21.2410447,12.0458812 22.1723183,11.7563175 C23.4271164,11.3662435 24.6235649,11.1867318 25.9857776,11.1866509 L25.9857776,11.1866509 L26.0342023,11.1866509 C27.3962549,11.1867318 28.5927034,11.3662435 29.8476616,11.7563175 C32.4826016,12.5756024 33.8988418,14.8278272 34.4603274,19.5145378 C34.7139764,21.6314011 35.336533,23.2974636 35.8983387,26.3439064 C36.3553711,28.8226232 35.1870169,30.4260992 34.0766122,30.5695469 C31.5269956,22.4811706 31.5919887,18.7227457 30.959507,16.9082222 C30.8455291,16.5817049 30.5616247,16.0779402 30.5616247,16.0779402 C31.1013392,18.2987909 30.7574843,19.3452955 30.4900683,20.4687799 C30.2056837,21.664069 30.1401303,22.9130499 30.4527693,24.1063983 C31.0415487,26.3520734 32.7529791,29.0621338 32.7529791,36.2267526 C32.7529791,36.2267526 31.8126609,36.1445977 30.4041046,36.0092362 L30.4041046,36.0092362 L30.3916182,49.9999963 C30.3916182,49.9999963 27.3535132,49.5459539 27.2024764,46.5132576 C27.2024764,46.5132576 26.5349369,39.3519541 26.4211991,36.0660816 C26.0407656,36.1221992 26.0269986,36.1299618 25.5786906,36.2016857 C25.4623915,39.5659935 24.8093394,46.5967871 24.8093394,46.5967871 C24.6110785,49.4815076 21.754826,49.9792887 21.6401277,49.9981293 L21.6401277,49.9981293 L21.6401277,37.4045757 C22.435172,37.4045757 24.0629598,36.9088162 24.0669618,35.0063966 C24.0760064,30.7886805 24.1366773,23.9215498 21.8083732,22.9060958 C20.1203948,22.1702596 15.9635608,22.1702596 14.4215767,22.9337503 C11.9022955,24.1813566 11.791279,30.8645282 12.0253981,35.0408434 C12.1319323,36.9401094 13.5725049,37.402069 14.3680294,37.402069 L14.3680294,37.402069 L14.3680294,49.9995039 C14.0066456,49.9928733 10.4191412,49.8261377 10.1996696,45.8037012 C10.1996696,45.8037012 9.62129547,30.3564778 9.61473214,30.1835159 C9.6081688,30.0105539 9.48898819,29.7847088 9.2013219,29.7847088 C8.9136556,29.7847088 8.78615076,30.0105539 8.77966746,30.1835159 C8.77302409,30.3564778 8.19056788,45.9166642 8.19056788,45.9166642 C7.91245949,49.76324 4.49134017,49.9864828 4.0462901,49.9992407 L3.99867609,49.9999963 C3.99867609,17.488239 3.99419381,16.91178 3.99419381,16.91178 L3.9750587,16.9058146 C3.91366298,16.8901722 3.77527359,16.8858596 3.70284565,17.113852 C3.50666588,17.983109 3.10510166,20.3639839 3.10510166,31.3391021 C1.97812854,31.3391021 -0.00183837231,30.5393857 1.28105609e-06,28.0604263 C0.00904716353,16.0059738 -0.0994079914,10.3780397 9.2013219,10.3780397 L9.2013219,10.3780397 Z M25.6015022,0.674705195 C28.2024249,0.674705195 29.6035374,2.53928179 29.6035374,5.19403326 C29.6035374,7.99134288 28.1359911,9.56942852 25.6015022,9.56942852 C23.0659728,9.56942852 21.599467,7.77609058 21.599467,5.19403326 C21.599467,2.25222481 23.1324866,0.674705195 25.6015022,0.674705195 Z M9.5831961,0 C11.9403949,0 13.4038591,1.52164458 13.4038591,4.3578484 C13.4038591,6.84812835 12.003547,8.57742429 9.5831961,8.57742429 C7.16380572,8.57742429 5.76245306,7.05586057 5.7625331,4.3578484 C5.7625331,1.7984322 7.09993323,0 9.5831961,0 Z" id="Combined-Shape"></path>
        </g>
    </g>
</svg>