<svg width="20px" height="20px" viewBox="0 0 20 20" version="1.1" xmlns="http://www.w3.org/2000/svg" xmlns:xlink="http://www.w3.org/1999/xlink">
    <g id="☑️-Visual" stroke="none" stroke-width="1" fill="none" fill-rule="evenodd">
        <g id="6.A-Design-tweaks" transform="translate(-1052.000000, -59.000000)" fill="#FFFFFF" fill-rule="nonzero">
            <g id="Map" transform="translate(0.000000, -7.000000)">
                <g id="Map-actions" transform="translate(884.000000, 47.000000)">
                    <g id="Object-tekenen">
                        <g id="3900-bewerken_24px" transform="translate(165.000000, 17.000000)">
                            <g id="Production" transform="translate(3.000000, 2.000000)">
                                <g id="Group">
                                    <path d="M14,18 L2,18 L2,7 L6,7 C6.5523,7 7,6.5523 7,6 L7,2 L11.9785,2 L13.9785,0 L6.4142,0 C6.149,0 5.8946,0.1054 5.7071,0.2929 L0.2929,5.7071 C0.1054,5.8946 0,6.149 0,6.4142 L0,19 C0,19.5523 0.4477,20 1,20 L15,20 C15.5523,20 16,19.5523 16,19 L16,10.0255 L14,12.0251 L14,18 Z" id="Shape"></path>
                                    <path d="M18.9383,3.2797 L16.7227,1.064 C16.3322,0.6735 15.699,0.6735 15.3085,1.064 L6.8027,9.5698 C6.7129,9.6596 6.6452,9.7691 6.605,9.8896 L6.0136,13.6614 C5.9467,13.8622 6.1377,14.0533 6.3386,13.9864 L10.1157,13.394 C10.2351,13.3542 10.3436,13.2872 10.4326,13.1982 L18.9383,4.6939 C19.3289,4.3034 19.3289,3.6702 18.9383,3.2797 Z" id="Shape"></path>
                                </g>
                            </g>
                        </g>
                    </g>
                </g>
            </g>
        </g>
    </g>
</svg>