<?xml version="1.0" encoding="UTF-8"?>
<svg width="24px" height="24px" viewBox="0 0 24 24" version="1.1" xmlns="http://www.w3.org/2000/svg" xmlns:xlink="http://www.w3.org/1999/xlink">
    <!-- Generator: Sketch 58 (84663) - https://sketch.com -->
    <title>01. Ontwerpprincipes/03 Icons/24/Home</title>
    <desc>Created with Sketch.</desc>
    <g id="01.-Ontwerpprincipes/03-Icons/24/Home" stroke="none" stroke-width="1" fill="none" fill-rule="evenodd">
        <g id="Icon" transform="translate(2.000000, 2.000000)" fill="#154273">
            <path d="M19.7416,8.9124274 L10.2712,0.106721134 C10.118,-0.0355737112 9.8824,-0.0355737112 9.7292,0.106721134 L0.2584,8.9124274 C0.094,9.0656369 0,9.28150465 0,9.50747856 L0,10.1065722 C0,10.3293121 0.1792,10.5108189 0.4,10.5108189 L2,10.5108189 L2,19 L8,19 L8,12.9362992 L12,12.9362992 L12,19 L18,19 L18,10.5108189 L19.6,10.5108189 C19.8208,10.5108189 20,10.3293121 20,10.1065722 L20,9.50747856 C20,9.28150465 19.9064,9.0656369 19.7416,8.9124274" id="Fill-1"></path>
        </g>
    </g>
</svg>