<?xml version="1.0" encoding="UTF-8"?>
<svg width="24px" height="24px" viewBox="0 0 24 24" version="1.1" xmlns="http://www.w3.org/2000/svg" xmlns:xlink="http://www.w3.org/1999/xlink">
    <!-- Generator: Sketch 58 (84663) - https://sketch.com -->
    <title>01. Ontwerpprincipes/03 Icons/24/Document</title>
    <desc>Created with Sketch.</desc>
    <g id="01.-Ontwerpprincipes/03-Icons/24/Document" stroke="none" stroke-width="1" fill="none" fill-rule="evenodd">
        <g id="Icon" transform="translate(4.000000, 2.000000)" fill="#154273">
            <path d="M15.25936,6.94384 L14.00016,7.31664 L14.00016,18.00024 L2.00016,18.00024 L2.00016,2.00024 L8.68376,2.00024 L9.05616,0.74584 C9.09976,0.60984 9.20016,0.65344 9.20016,0.65344 L9.20016,6.40024 C9.20016,6.62104 9.37936,6.80024 9.60016,6.80024 L15.34696,6.80024 C15.34696,6.80024 15.39576,6.90024 15.25936,6.94384 M15.76576,6.16584 L9.83416,0.23464 C9.68416,0.08464 9.48096,0.00024 9.26856,0.00024 L0.80016,0.00024 C0.35816,0.00024 0.00016,0.35824 0.00016,0.80024 L0.00016,19.20024 C0.00016,19.64184 0.35816,20.00024 0.80016,20.00024 L15.20016,20.00024 C15.64016,20.00024 16.00016,19.63984 16.00016,19.20024 L16.00016,6.73144 C16.00016,6.51904 15.91576,6.31584 15.76576,6.16584" id="Fill-1"></path>
        </g>
    </g>
</svg>