<?xml version="1.0" encoding="UTF-8"?>
<svg width="24px" height="24px" viewBox="0 0 24 24" version="1.1" xmlns="http://www.w3.org/2000/svg" xmlns:xlink="http://www.w3.org/1999/xlink">
    <title>01. Ontwerpprincipes/03. Icons/02. 24px/08. Social/03. Instagram</title>
    <g id="01.-Ontwerpprincipes/03.-Icons/02.-24px/08.-Social/03.-Instagram" stroke="none" stroke-width="1" fill="none" fill-rule="evenodd">
        <g id="Icon" transform="translate(2.000000, 2.000000)" fill="#154273">
            <path d="M10.546888,0.000187682216 C10.6323487,0.000251761419 10.71506,0.000332999271 10.7951633,0.000432534621 L11.4494953,0.00185313411 C12.8955102,0.00668367347 13.2845635,0.0220238095 14.1222222,0.06 C15.1872222,0.108333333 15.9144444,0.277777778 16.5505556,0.525 C17.2177146,0.776188037 17.8221109,1.16976607 18.3216667,1.67833333 C18.8303172,2.17782096 19.2239079,2.78223683 19.475,3.44944444 C19.7222222,4.08555556 19.8911111,4.81277778 19.94,5.87722222 C19.9819048,6.79150794 19.9960544,7.1719161 19.999242,8.97238257 L19.9995675,10.7950216 C19.9979749,12.0764862 19.9916982,12.6906298 19.9760726,13.2163964 L19.9697656,13.4105469 C19.961875,13.6348611 19.9520833,13.8561111 19.94,14.1227778 C19.8916667,15.1872222 19.7222222,15.9144444 19.475,16.5505556 C19.2194444,17.2077778 18.8772222,17.7661111 18.3216667,18.3216667 C17.822179,18.8303172 17.2177632,19.2239079 16.5505556,19.475 C15.9144444,19.7222222 15.1872222,19.8911111 14.1227778,19.94 C13.2084921,19.9819048 12.8280839,19.9960544 11.0276174,19.999242 L9.20497836,19.9995675 C7.84342221,19.9978754 7.23520894,19.9908953 6.68591675,19.9730321 L6.49336471,19.9662664 C6.30099773,19.9590306 6.10579365,19.9503571 5.87722222,19.94 C4.81277778,19.8916667 4.08555556,19.7222222 3.44944444,19.475 C2.79222222,19.2194444 2.23388889,18.8772222 1.67833333,18.3216667 C1.16966894,17.8221904 0.776076055,17.2177713 0.525,16.5505556 C0.277777778,15.9144444 0.108888889,15.1872222 0.06,14.1227778 C0.053015873,13.9703968 0.0468027211,13.8328571 0.0412827988,13.7011079 L0.0335131195,13.5066954 C0.0323015873,13.47464 0.0311309524,13.4426637 0.03,13.410625 L0.023680758,13.2165132 C0.010978701,12.7894138 0.00457240039,12.3039759 0.00179300292,11.4495007 L0.000415451895,10.795164 C0.000319484936,10.7150604 0.000241334629,10.632349 0.0001797862,10.5468882 L0.000187682215,9.45311204 C0.000251761418,9.36765134 0.000332999271,9.28494002 0.000432534621,9.20483669 L0.00185313411,8.55050474 C0.00536625364,7.49885751 0.0144381681,7.00626437 0.0337336006,6.49357406 L0.0414577259,6.29924198 C0.0469387755,6.16755102 0.0530952381,6.03007937 0.06,5.87777778 C0.108333333,4.81277778 0.277777778,4.08555556 0.525,3.44944444 C0.776188037,2.78228541 1.16976607,2.17788908 1.67833333,1.67833333 C2.1778096,1.16966894 2.78222872,0.776076055 3.44944444,0.525 C4.08555556,0.277777778 4.81277778,0.108888889 5.87722222,0.06 C6.71531746,0.0215873016 7.10480726,0.00649659864 8.55071975,0.00179300292 L9.20497836,0.000415451895 C9.2850699,0.000319484937 9.36776816,0.000241334629 9.45321449,0.0001797862 Z M10.8070797,1.80209419 L9.19292029,1.80209419 C7.9789209,1.80358025 7.38525377,1.80923868 6.881893,1.82364198 L6.68410868,1.82988052 C6.45604786,1.83772824 6.23226337,1.84761317 5.95888889,1.86 C4.98388889,1.90444444 4.45444444,2.06722222 4.10222222,2.20444444 C3.63555556,2.38555556 3.30222222,2.60222222 2.95222222,2.95222222 C2.60277778,3.30222222 2.38555556,3.63555556 2.20444444,4.10222222 C2.06722222,4.45444444 1.90444444,4.98388889 1.86,5.95888889 C1.84761317,6.23226337 1.83772824,6.45604786 1.82988052,6.68410868 L1.82364198,6.881893 C1.80923868,7.38525377 1.80358025,7.9789209 1.80209419,9.19292029 L1.80209419,10.8070797 C1.80447188,12.7494787 1.81753086,13.1038272 1.86,14.0411111 C1.90444444,15.0161111 2.06722222,15.5455556 2.20444444,15.8977778 C2.36464948,16.3321672 2.62017042,16.7251303 2.95222222,17.0477778 C3.27485767,17.3798442 3.66782432,17.6353675 4.10222222,17.7955556 C4.45444444,17.9327778 4.98388889,18.0955556 5.95888889,18.14 C6.85711934,18.1806996 7.21957705,18.1943888 8.95805529,18.1975516 L9.44404246,18.1981487 C9.6172809,18.1982754 9.80218107,18.1983333 10,18.1983333 L10.2871965,18.1982885 C10.3798037,18.1982582 10.4693383,18.1982121 10.5559575,18.1981487 L11.0419447,18.1975516 C12.780423,18.1943888 13.1428807,18.1806996 14.0411111,18.14 C15.0161111,18.0955556 15.5455556,17.9327778 15.8977778,17.7955556 C16.3644444,17.6144444 16.6977778,17.3977778 17.0477778,17.0477778 C17.3798442,16.7251423 17.6353675,16.3321757 17.7955556,15.8977778 C17.9327778,15.5455556 18.0955556,15.0161111 18.14,14.0411111 C18.1806996,13.1428807 18.1943888,12.7800198 18.1975516,11.0417655 L18.1981487,10.5558517 C18.1982754,10.3826429 18.1983333,10.1977778 18.1983333,10 L18.1982885,9.71286079 C18.1982582,9.62027119 18.1982121,9.53075271 18.1981487,9.44414831 L18.1975516,8.95823446 C18.1943888,7.21998019 18.1806996,6.85711934 18.14,5.95888889 C18.0955556,4.98388889 17.9327778,4.45444444 17.7955556,4.10222222 C17.6144444,3.63555556 17.3977778,3.30222222 17.0477778,2.95222222 C16.6977778,2.60277778 16.3644444,2.38555556 15.8977778,2.20444444 C15.5455556,2.06722222 15.0161111,1.90444444 14.0411111,1.86 C13.1038272,1.81753086 12.7494787,1.80447188 10.8070797,1.80209419 Z M10.2379694,5.35481087 C13.1308201,5.35481087 15.4759389,7.73781763 15.4759389,10.6774054 C15.4759389,13.6169932 13.1308201,16 10.2379694,16 C7.34511879,16 5,13.6169932 5,10.6774054 C5,7.73781763 7.34511879,5.35481087 10.2379694,5.35481087 Z M10.2379694,7.22220624 C9.02317202,7.22220624 7.90065292,7.88076347 7.29325421,8.94980582 C6.6858555,10.0188482 6.6858555,11.3359627 7.29325421,12.405005 C7.90065292,13.4740474 9.02317202,14.1326046 10.2379694,14.1326046 C12.1158835,14.1326046 13.6382336,12.5856592 13.6382336,10.6774054 C13.6382336,8.76915163 12.1158835,7.22220624 10.2379694,7.22220624 Z M15.7618419,4 C16.4456577,4 17,4.56329829 17,5.25816194 C17,5.9530256 16.4456577,6.51632389 15.7618419,6.51632389 C15.078026,6.51632389 14.5236837,5.9530256 14.5236837,5.25816194 C14.5236837,4.56329829 15.078026,4 15.7618419,4 Z" id="Combined-Shape"></path>
        </g>
    </g>
</svg>