<?xml version="1.0" encoding="UTF-8"?>
<svg width="14px" height="14px" viewBox="0 0 14 14" version="1.1" xmlns="http://www.w3.org/2000/svg" xmlns:xlink="http://www.w3.org/1999/xlink">
    <!-- Generator: sketchtool 52.2 (67145) - http://www.bohemiancoding.com/sketch -->
    <title>580B74B8-4557-4B89-BECE-8F8ADF95B675</title>
    <desc>Created with sketchtool.</desc>
    <g id="Visual---KPM" stroke="none" stroke-width="1" fill="none" fill-rule="evenodd">
        <g id="2.A-Detail-(Gemeente)" transform="translate(-379.000000, -332.000000)">
            <g id="Sidebar---Zoekopdracht" transform="translate(0.000000, 241.000000)">
                <g id="Group-6" transform="translate(44.000000, 85.000000)">
                    <g id="3909-kruis-24px" transform="translate(332.000000, 3.000000)">
                        <g id="_x32_4px_Boxes">
                            <rect id="Rectangle-path" x="0" y="0" width="20" height="20"></rect>
                        </g>
                        <g id="Production">
                            <rect id="Rectangle-path" x="0" y="0" width="20" height="20"></rect>
                            <path d="M14.73925,3.51141667 L10.0085833,7.70125 L5.27791667,3.51133333 C4.78041667,3.07066667 4.02916667,3.08183333 3.54533333,3.53675 C3.09033333,4.0205 3.07916667,4.77183333 3.51991667,5.26925 L7.70983333,10 L3.51991667,14.73075 C3.07916667,15.2281667 3.09033333,15.9795 3.54525,16.46325 C4.02908333,16.9181667 4.78033333,16.9293333 5.27783333,16.4885833 L10.0085,12.2986667 L14.7391667,16.4885833 C15.2365833,16.9293333 15.9879167,16.9181667 16.47175,16.4633333 C16.9266667,15.9795 16.9378333,15.22825 16.4970833,14.73075 L12.30725,10 L16.4971667,5.26933333 C16.9379167,4.77183333 16.9266667,4.02058333 16.4718333,3.53675 C15.9879167,3.08183333 15.2366667,3.07066667 14.73925,3.51141667 Z M10.0085833,10.0120833 L10.0025,10.006 L9.9965,10 L10.0025833,9.99391667 L10.0085833,9.98791667 L10.0146667,9.994 L10.0206667,10 L10.0146667,10.006 L10.0085833,10.0120833 Z" id="Shape" fill="#154273" fill-rule="nonzero"></path>
                        </g>
                    </g>
                </g>
            </g>
        </g>
    </g>
</svg>