<svg aria-hidden="true" focusable="false" role="img" width="51" height="56" xmlns="http://www.w3.org/2000/svg"><g fill="none"><path d="M-6-4h64v64H-6z"/><g fill="#000"><path d="M42 38c-2.045 0-3.925.69-5.437 1.84L17.922 29.13c.046-.371.078-.747.078-1.13a8.956 8.956 0 0 0-1.975-5.618c.088-.08.31-.095.518.038.378.239 1.78 1.273 3.323 3.4l16.712-9.648A8.948 8.948 0 0 0 42 18c1.181 0 2.31-.228 3.342-.641A9 9 0 1 0 33 9c0 .377.03.746.076 1.111L14.46 20.858A8.95 8.95 0 0 0 9 19a9 9 0 0 0 0 18c2.032 0 3.9-.681 5.407-1.817l18.666 10.725A9.047 9.047 0 0 0 33 47a9 9 0 1 0 9-9z"/><path d="M39 16h6v27h-6z"/></g></g></svg>
