<?xml version="1.0" encoding="UTF-8"?>
<svg width="24px" height="24px" viewBox="0 0 24 24" version="1.1" xmlns="http://www.w3.org/2000/svg" xmlns:xlink="http://www.w3.org/1999/xlink">
    <!-- Generator: Sketch 63 (92445) - https://sketch.com -->
    <title>Artboard</title>
    <desc>Created with Sketch.</desc>
    <g id="Artboard" stroke="none" stroke-width="1" fill="none" fill-rule="evenodd">
        <g id="icon-info-blue" transform="translate(-1.000000, -1.000000)">
            <polygon id="Path" points="0 0 26 0 26 26 0 26"></polygon>
            <path d="M21.879,5.73503125 C21.746516,4.90465514 21.0953448,4.25348393 20.2649687,4.121 C17.8433125,3.7171875 13.8072187,3.7171875 13,3.7171875 C12.1927812,3.7171875 8.1566875,3.7171875 5.73503125,4.121 C4.90465514,4.25348393 4.25348393,4.90465514 4.121,5.73503125 C3.7171875,8.1566875 3.7171875,12.1927812 3.7171875,13 C3.7171875,13.8072187 3.7171875,17.8433125 4.121,20.2649687 C4.25348393,21.0953448 4.90465514,21.746516 5.73503125,21.879 C8.1566875,22.2828125 12.1927812,22.2828125 13,22.2828125 C13.8072187,22.2828125 17.8433125,22.2828125 20.2649687,21.879 C21.0953448,21.746516 21.746516,21.0953448 21.879,20.2649687 C22.2828125,17.8433125 22.2828125,13.8072187 22.2828125,13 C22.2828125,10.577125 22.2828125,8.1566875 21.879,5.73503125 Z M14.21875,19.5 L11.552125,19.5 L11.78125,13.8125 L11.78125,10.5625 L14.21875,10.5625 L14.21875,19.5 Z M13.0093437,8.9375 C12.0985312,8.9375 11.578125,8.42846875 11.578125,7.49815625 C11.578125,6.708 12.0615625,6.09375 12.9906562,6.09375 C13.9014687,6.09375 14.421875,6.5853125 14.421875,7.49815625 C14.421875,8.305375 13.9384375,8.9375 13.0093437,8.9375 L13.0093437,8.9375 Z" id="Shape" fill="#154273" fill-rule="nonzero"></path>
        </g>
    </g>
</svg>