<?xml version="1.0" encoding="UTF-8"?>
<svg width="21px" height="21px" viewBox="0 0 21 21" version="1.1" xmlns="http://www.w3.org/2000/svg" xmlns:xlink="http://www.w3.org/1999/xlink">
    <title>3945 externe link 24px</title>
    <g id="★-Component-&amp;-style-guide" stroke="none" stroke-width="1" fill="none" fill-rule="evenodd">
        <g id="Overheid.nl-|-Online-Styleguide" transform="translate(-767.000000, -7830.000000)">
            <g id="3945-externe-link-24px" transform="translate(766.000000, 7828.000000)">
                <g id="_x36_4px_Box">
                    <rect id="Rectangle-path" x="0" y="0" width="24" height="24"></rect>
                </g>
                <g id="Icon" transform="translate(1.000000, 2.000000)" fill="#154273" fill-rule="nonzero">
                    <path d="M15,18 L3,18 L3,6 L9,6 L9,3 L1.1,3 C0.5,3 0,3.5 0,4.1 L0,19.9 C0,20.5 0.5,21 1.1,21 L16.9,21 C17.5,21 18,20.5 18,19.9 L18,12 L15,12 L15,18 L15,18 Z M20.6,0.4 C20.3,0.1 20,1.38777878e-17 19.6,0.1 L11.2,1 C10.6,1.1 10.1,1.6 10.1,2.2 C10.1,2.8 10.6,3.3 11.2,3.4 L14.9,3.7 L10.2,8.4 C9.4,9.2 9.8,10 10.4,10.6 C11,11.2 11.8,11.6 12.6,10.8 L17.3,6.1 L17.6,9.8 C17.7,10.4 18.2,10.9 18.8,10.9 C18.8,10.9 18.8,10.9 18.8,10.9 C19.4,10.9 19.9,10.4 20,9.8 L20.9,1.4 C21,1 20.8,0.7 20.6,0.4 Z" id="Shape"></path>
                </g>
            </g>
        </g>
    </g>
</svg>
