<!DOCTYPE svg PUBLIC "-//W3C//DTD SVG 1.1//EN" "http://www.w3.org/Graphics/SVG/1.1/DTD/svg11.dtd">

<svg width="800px" height="800px" viewBox="0 0 24 24" fill="none" xmlns="http://www.w3.org/2000/svg" stroke="#154273">

<g id="SVGRepo_bgCarrier" stroke-width="0"/>

<g id="SVGRepo_tracerCarrier" stroke-linecap="round" stroke-linejoin="round"/>

<g id="SVGRepo_iconCarrier"> <path d="M4 16.937L10 9.43701L15 13.437L20.5 6.93701" stroke="#154273" stroke-width="2" stroke-linecap="round" stroke-linejoin="round"/> <circle cx="10" cy="8.93701" r="2" fill="#154273"/> <path d="M16.8125 14C16.8125 15.1046 15.9171 16 14.8125 16C13.7079 16 12.8125 15.1046 12.8125 14C12.8125 12.8954 13.7079 12 14.8125 12C15.9171 12 16.8125 12.8954 16.8125 14Z" fill="#154273"/> <circle cx="4" cy="16.937" r="2" fill="#154273"/> <path d="M22.5 7.00002C22.5 8.10459 21.6046 9.00002 20.5 9.00002C19.3954 9.00002 18.5 8.10459 18.5 7.00002C18.5 5.89545 19.3954 5.00002 20.5 5.00002C21.6046 5.00002 22.5 5.89545 22.5 7.00002Z" fill="#154273"/> </g>

</svg>